<svg width="255" height="100" viewBox="0 0 255 100" fill="none" xmlns="http://www.w3.org/2000/svg">
<rect width="255" height="100" rx="5" fill="#CF649A"/>
<g clip-path="url(#clip0)" filter="url(#filter0_d)">
<path d="M163.697 55.2758C160.187 55.2961 157.148 56.1683 154.599 57.4666C153.657 55.5395 152.716 53.8558 152.559 52.5981C152.383 51.1376 152.167 50.2451 152.383 48.5006C152.598 46.756 153.579 44.2813 153.579 44.0784C153.559 43.8958 153.363 43.0033 151.344 42.983C149.324 42.9627 147.579 43.3887 147.383 43.9364C147.187 44.4841 146.794 45.7418 146.54 47.04C146.187 48.9468 142.5 55.7018 140.402 59.2517C139.716 57.8723 139.128 56.6552 139.01 55.6815C138.834 54.221 138.618 53.3284 138.834 51.5839C139.049 49.8394 140.03 47.3646 140.03 47.1617C140.01 46.9792 139.814 46.0866 137.794 46.0664C135.775 46.0461 134.03 46.4721 133.833 47.0197C133.637 47.5674 133.422 48.8657 132.99 50.1234C132.579 51.381 127.677 62.6596 126.402 65.6009C125.755 67.102 125.186 68.2988 124.775 69.1102C124.363 69.9216 124.755 69.1711 124.716 69.2522C124.363 69.9419 124.167 70.3273 124.167 70.3273V70.3476C123.892 70.8547 123.598 71.3416 123.461 71.3416C123.363 71.3416 123.167 69.9825 123.5 68.1162C124.225 64.2012 125.99 58.0954 125.971 57.8723C125.971 57.7708 126.304 56.6957 124.833 56.148C123.402 55.6003 122.892 56.5132 122.774 56.5132C122.657 56.5132 122.559 56.8377 122.559 56.8377C122.559 56.8377 124.147 49.9611 119.52 49.9611C116.618 49.9611 112.617 53.227 110.637 56.2089C109.382 56.9189 106.715 58.42 103.892 60.0225C102.813 60.631 101.696 61.2802 100.637 61.8684L100.421 61.625C94.8133 55.4381 84.4406 51.0565 84.8719 42.7396C85.0288 39.7171 86.0484 31.7451 104.794 22.0894C120.147 14.1782 132.441 16.3487 134.579 21.1765C137.618 28.0735 128.01 40.8937 112.049 42.7396C105.97 43.4496 102.774 41.0154 101.97 40.1025C101.127 39.1491 101.009 39.1086 100.696 39.2911C100.186 39.5751 100.5 40.4271 100.696 40.9342C101.166 42.2122 103.127 44.4841 106.461 45.6201C109.382 46.614 116.519 47.1617 125.147 43.7133C134.814 39.8388 142.363 29.0877 140.147 20.1014C137.892 10.9529 123.225 7.95067 109.363 13.0422C101.107 16.085 92.1662 20.8317 85.7347 27.0592C78.0875 34.443 76.8718 40.8937 77.3816 43.5713C79.166 53.1256 91.8917 59.3531 96.9898 63.9578C96.7349 64.0998 96.4996 64.2418 96.2839 64.3635C93.7348 65.6617 84.0288 70.9156 81.5974 76.4737C78.8522 82.7621 82.0288 87.2857 84.1464 87.8942C90.6956 89.7807 97.4015 86.3931 101.029 80.8147C104.637 75.2363 104.206 67.9945 102.539 64.6881L102.48 64.5664L104.48 63.3492C105.774 62.5581 107.049 61.8279 108.166 61.199C107.539 62.9638 107.088 65.0532 106.853 68.096C106.578 71.6661 107.99 76.2911 109.853 78.1168C110.676 78.9079 111.657 78.9282 112.265 78.9282C114.421 78.9282 115.402 77.0823 116.48 74.8712C117.814 72.1733 118.99 69.0494 118.99 69.0494C118.99 69.0494 117.52 77.5082 121.539 77.5082C123.01 77.5082 124.48 75.5406 125.147 74.5263V74.5466C125.147 74.5466 125.186 74.4858 125.265 74.3438C125.422 74.1003 125.5 73.9584 125.5 73.9584V73.9178C126.088 72.863 127.402 70.449 129.363 66.4529C131.892 61.3005 134.324 54.8498 134.324 54.8498C134.324 54.8498 134.559 56.432 135.284 59.0285C135.716 60.5702 136.657 62.2539 137.383 63.8969C136.794 64.7489 136.441 65.2358 136.441 65.2358L136.461 65.256C135.99 65.9052 135.461 66.5949 134.912 67.2846C132.912 69.7593 130.52 72.579 130.206 73.3904C129.833 74.3438 129.912 75.0537 130.637 75.6217C131.167 76.0274 132.108 76.1086 133.108 76.0274C134.912 75.9057 136.167 75.4392 136.794 75.1552C137.775 74.79 138.892 74.2423 139.971 73.4309C141.932 71.9298 143.128 69.7999 143.01 66.96C142.951 65.398 142.461 63.8564 141.853 62.3958C142.03 62.1321 142.206 61.8684 142.383 61.5844C145.481 56.8986 147.873 51.7462 147.873 51.7462C147.873 51.7462 148.108 53.3284 148.834 55.9249C149.206 57.2434 149.951 58.6837 150.618 60.1036C147.716 62.5581 145.892 65.398 145.265 67.2643C144.108 70.7127 145.01 72.2747 146.716 72.6398C147.481 72.8021 148.579 72.437 149.402 72.0718C150.422 71.727 151.657 71.1387 152.795 70.2665C154.755 68.7654 156.638 66.676 156.54 63.8564C156.481 62.5581 156.148 61.2802 155.697 60.0631C158.167 59.0082 161.363 58.3997 165.422 58.9068C174.148 59.9616 175.873 65.6009 175.54 67.954C175.207 70.307 173.383 71.6053 172.775 72.011C172.167 72.3964 171.971 72.5384 172.03 72.8224C172.109 73.2484 172.383 73.2281 172.913 73.147C173.638 73.0252 177.501 71.2199 177.658 66.8789C177.893 61.3005 172.775 55.2149 163.697 55.2758V55.2758ZM96.4015 78.7456C93.5191 82.0115 89.4602 83.2489 87.7347 82.1941C85.872 81.0784 86.5975 76.2709 90.1465 72.8021C92.3034 70.6925 95.1074 68.7451 96.9506 67.5483C97.3623 67.2846 97.9898 66.8991 98.7349 66.4326C98.8525 66.3514 98.931 66.3109 98.931 66.3109C99.0682 66.2297 99.2251 66.1283 99.382 66.0269C100.696 70.9764 99.4408 75.3175 96.4015 78.7456V78.7456ZM117.48 63.9172C116.48 66.4529 114.363 72.9644 113.088 72.5993C111.99 72.295 111.323 67.3657 112.872 62.4973C113.657 60.0428 115.323 57.1217 116.304 55.9858C117.892 54.1601 119.618 53.5515 120.049 54.3021C120.559 55.2758 118.108 62.335 117.48 63.9172ZM134.873 72.5181C134.441 72.7412 134.049 72.9035 133.873 72.7818C133.735 72.7007 134.049 72.3964 134.049 72.3964C134.049 72.3964 136.226 69.9825 137.088 68.8668C137.579 68.2177 138.167 67.4671 138.794 66.6151V66.8586C138.794 69.7796 136.088 71.727 134.873 72.5181V72.5181ZM148.285 69.3536C147.971 69.1102 148.01 68.3597 149.069 66.0066C149.481 65.0735 150.422 63.5115 152.049 62.0307C152.246 62.6393 152.363 63.2275 152.344 63.7752C152.324 67.4266 149.814 68.7857 148.285 69.3536Z" fill="white"/>
</g>
<defs>
<filter id="filter0_d" x="72.3032" y="8.52637" width="110.394" height="87.8947" filterUnits="userSpaceOnUse" color-interpolation-filters="sRGB">
<feFlood flood-opacity="0" result="BackgroundImageFix"/>
<feColorMatrix in="SourceAlpha" type="matrix" values="0 0 0 0 0 0 0 0 0 0 0 0 0 0 0 0 0 0 127 0"/>
<feOffset dy="3"/>
<feGaussianBlur stdDeviation="2.5"/>
<feColorMatrix type="matrix" values="0 0 0 0 0 0 0 0 0 0 0 0 0 0 0 0 0 0 0.25 0"/>
<feBlend mode="normal" in2="BackgroundImageFix" result="effect1_dropShadow"/>
<feBlend mode="normal" in="SourceGraphic" in2="effect1_dropShadow" result="shape"/>
</filter>
<clipPath id="clip0">
<rect width="100.394" height="77.8947" fill="white" transform="translate(77.3032 10.5264)"/>
</clipPath>
</defs>
</svg>
