<svg width="255" height="100" viewBox="0 0 255 100" fill="none" xmlns="http://www.w3.org/2000/svg">
  <rect width="255" height="100" rx="5" fill="#664B8D"/>
  <g filter="url(#filter0_d)">
    <path d="M100.592 48.658C102.677 49.8593 103.72 51.6727 103.72 54.098C103.72 56.1153 103.006 57.77 101.578 59.062C100.15 60.354 98.3933 61 96.308 61H86.21V37.2H95.594C97.6113 37.2 99.3227 37.8347 100.728 39.104C102.133 40.3733 102.836 41.9713 102.836 43.898C102.836 45.87 102.088 47.4567 100.592 48.658ZM95.594 41.586H90.902V46.822H95.594C96.3193 46.822 96.92 46.5727 97.396 46.074C97.8947 45.5753 98.144 44.952 98.144 44.204C98.144 43.456 97.906 42.8327 97.43 42.334C96.954 41.8353 96.342 41.586 95.594 41.586ZM90.902 56.614H96.308C97.1013 56.614 97.7587 56.3533 98.28 55.832C98.8013 55.288 99.062 54.608 99.062 53.792C99.062 52.9987 98.8013 52.3413 98.28 51.82C97.7587 51.276 97.1013 51.004 96.308 51.004H90.902V56.614ZM121.342 58.892C119.619 60.6147 117.488 61.476 114.95 61.476C112.411 61.476 110.28 60.6147 108.558 58.892C106.835 57.1693 105.974 55.0387 105.974 52.5C105.974 49.984 106.835 47.8647 108.558 46.142C110.303 44.3967 112.434 43.524 114.95 43.524C117.466 43.524 119.596 44.3967 121.342 46.142C123.087 47.8873 123.96 50.0067 123.96 52.5C123.96 55.016 123.087 57.1467 121.342 58.892ZM111.652 55.866C112.536 56.75 113.635 57.192 114.95 57.192C116.264 57.192 117.364 56.75 118.248 55.866C119.132 54.982 119.574 53.86 119.574 52.5C119.574 51.14 119.132 50.018 118.248 49.134C117.364 48.25 116.264 47.808 114.95 47.808C113.635 47.808 112.536 48.25 111.652 49.134C110.79 50.0407 110.36 51.1627 110.36 52.5C110.36 53.8373 110.79 54.9593 111.652 55.866ZM141.529 58.892C139.806 60.6147 137.676 61.476 135.137 61.476C132.598 61.476 130.468 60.6147 128.745 58.892C127.022 57.1693 126.161 55.0387 126.161 52.5C126.161 49.984 127.022 47.8647 128.745 46.142C130.49 44.3967 132.621 43.524 135.137 43.524C137.653 43.524 139.784 44.3967 141.529 46.142C143.274 47.8873 144.147 50.0067 144.147 52.5C144.147 55.016 143.274 57.1467 141.529 58.892ZM131.839 55.866C132.723 56.75 133.822 57.192 135.137 57.192C136.452 57.192 137.551 56.75 138.435 55.866C139.319 54.982 139.761 53.86 139.761 52.5C139.761 51.14 139.319 50.018 138.435 49.134C137.551 48.25 136.452 47.808 135.137 47.808C133.822 47.808 132.723 48.25 131.839 49.134C130.978 50.0407 130.547 51.1627 130.547 52.5C130.547 53.8373 130.978 54.9593 131.839 55.866ZM156.591 44V48.216H152.749V55.288C152.749 55.8773 152.897 56.308 153.191 56.58C153.486 56.852 153.917 57.0107 154.483 57.056C155.05 57.0787 155.753 57.0673 156.591 57.022V61C153.622 61.34 151.503 61.068 150.233 60.184C148.987 59.2773 148.363 57.6453 148.363 55.288V48.216H145.405V44H148.363V40.566L152.749 39.24V44H156.591ZM163.365 48.828C163.365 49.5533 164.396 50.1767 166.459 50.698C167.184 50.8567 167.841 51.0493 168.431 51.276C169.02 51.48 169.609 51.786 170.199 52.194C170.811 52.5793 171.287 53.1007 171.627 53.758C171.967 54.4153 172.137 55.1747 172.137 56.036C172.137 57.7813 171.479 59.13 170.165 60.082C168.85 61.0113 167.229 61.476 165.303 61.476C161.812 61.476 159.432 60.1273 158.163 57.43L161.971 55.288C162.492 56.7613 163.603 57.498 165.303 57.498C166.867 57.498 167.649 57.0107 167.649 56.036C167.649 55.3107 166.617 54.6873 164.555 54.166C163.784 53.962 163.127 53.758 162.583 53.554C162.039 53.35 161.449 53.0553 160.815 52.67C160.18 52.262 159.693 51.752 159.353 51.14C159.035 50.5053 158.877 49.7687 158.877 48.93C158.877 47.2527 159.489 45.938 160.713 44.986C161.959 44.0113 163.501 43.524 165.337 43.524C166.719 43.524 167.977 43.8413 169.111 44.476C170.244 45.088 171.139 45.972 171.797 47.128L168.057 49.168C167.513 48.012 166.606 47.434 165.337 47.434C164.77 47.434 164.294 47.57 163.909 47.842C163.546 48.0913 163.365 48.42 163.365 48.828ZM184.183 44V48.216H180.341V55.288C180.341 55.8773 180.488 56.308 180.783 56.58C181.078 56.852 181.508 57.0107 182.075 57.056C182.642 57.0787 183.344 57.0673 184.183 57.022V61C181.214 61.34 179.094 61.068 177.825 60.184C176.578 59.2773 175.955 57.6453 175.955 55.288V48.216H172.997V44H175.955V40.566L180.341 39.24V44H184.183ZM191.927 44V46.924C192.312 45.8587 192.97 45.054 193.899 44.51C194.828 43.9433 195.894 43.66 197.095 43.66V48.556C195.758 48.3747 194.556 48.6467 193.491 49.372C192.448 50.0747 191.927 51.242 191.927 52.874V61H187.541V44H191.927ZM211.949 46.006V44H216.335V61H211.949V58.994C210.635 60.6487 208.787 61.476 206.407 61.476C204.141 61.476 202.191 60.6147 200.559 58.892C198.95 57.1467 198.145 55.016 198.145 52.5C198.145 50.0067 198.95 47.8873 200.559 46.142C202.191 44.3967 204.141 43.524 206.407 43.524C208.787 43.524 210.635 44.3513 211.949 46.006ZM203.857 55.968C204.741 56.852 205.863 57.294 207.223 57.294C208.583 57.294 209.705 56.852 210.589 55.968C211.496 55.0613 211.949 53.9053 211.949 52.5C211.949 51.0947 211.496 49.95 210.589 49.066C209.705 48.1593 208.583 47.706 207.223 47.706C205.863 47.706 204.741 48.1593 203.857 49.066C202.973 49.95 202.531 51.0947 202.531 52.5C202.531 53.9053 202.973 55.0613 203.857 55.968ZM230.207 43.524C232.496 43.524 234.445 44.3967 236.055 46.142C237.687 47.8873 238.503 50.0067 238.503 52.5C238.503 55.0387 237.687 57.1693 236.055 58.892C234.468 60.6147 232.519 61.476 230.207 61.476C227.827 61.476 225.991 60.6487 224.699 58.994V67.8H220.313V44H224.699V46.006C225.991 44.3513 227.827 43.524 230.207 43.524ZM226.025 55.968C226.909 56.852 228.031 57.294 229.391 57.294C230.751 57.294 231.873 56.852 232.757 55.968C233.663 55.0613 234.117 53.9053 234.117 52.5C234.117 51.0947 233.663 49.95 232.757 49.066C231.873 48.1593 230.751 47.706 229.391 47.706C228.031 47.706 226.909 48.1593 226.025 49.066C225.141 49.95 224.699 51.0947 224.699 52.5C224.699 53.9053 225.141 55.0613 226.025 55.968Z" fill="white"/>
  </g>
  <g filter="url(#filter1_d)">
    <path d="M22 68.5529C22 72.1139 24.8865 75 28.4471 75H65.5527C69.1139 75 72 72.1135 72 68.5529V31.4473C72 27.8861 69.1135 25 65.5529 25H28.4473C24.8861 25 22 27.8865 22 31.4471V68.5527V68.5529Z" fill="#563D7C"/>
    <path d="M42.734 47.1168V40.0361H48.9667C49.5604 40.0361 50.1327 40.0855 50.6839 40.1846C51.235 40.2834 51.7227 40.46 52.1468 40.7145C52.5706 40.9689 52.9098 41.3223 53.1643 41.7744C53.4186 42.2268 53.546 42.8063 53.546 43.5127C53.546 44.7848 53.1643 45.7035 52.4011 46.2688C51.638 46.8342 50.6628 47.1168 49.4755 47.1168H42.734V47.1168ZM36.0771 34.8633V65.1367H50.7475C52.1044 65.1367 53.4259 64.9672 54.712 64.6279C55.9981 64.2887 57.1429 63.7658 58.1464 63.0592C59.1497 62.3525 59.9484 61.4408 60.5419 60.3244C61.1357 59.2078 61.4324 57.8863 61.4324 56.36C61.4324 54.466 60.973 52.8479 60.0544 51.5053C59.1357 50.1625 57.7435 49.2227 55.8778 48.6855C57.2347 48.0355 58.2595 47.2016 58.9521 46.184C59.6444 45.1664 59.9907 43.8945 59.9907 42.368C59.9907 40.9547 59.7575 39.7676 59.2911 38.8064C58.8247 37.8455 58.1675 37.0752 57.3194 36.4957C56.4716 35.9162 55.454 35.4992 54.2667 35.2449C53.0796 34.9904 51.7651 34.8633 50.3235 34.8633H36.0771V34.8633ZM42.734 59.9639V51.6535H49.9842C51.4259 51.6535 52.5848 51.9855 53.4612 52.65C54.3374 53.3143 54.7757 54.4236 54.7757 55.9783C54.7757 56.7699 54.6413 57.4199 54.3727 57.9287C54.1042 58.4375 53.7438 58.8404 53.2915 59.1371C52.8393 59.434 52.3163 59.6459 51.7227 59.7732C51.129 59.9002 50.5073 59.9639 49.8571 59.9639H42.734V59.9639Z" fill="white"/>
  </g>
  <defs>
    <filter id="filter0_d" x="81.21" y="35.2" width="162.293" height="40.6" filterUnits="userSpaceOnUse" color-interpolation-filters="sRGB">
      <feFlood flood-opacity="0" result="BackgroundImageFix"/>
      <feColorMatrix in="SourceAlpha" type="matrix" values="0 0 0 0 0 0 0 0 0 0 0 0 0 0 0 0 0 0 127 0"/>
      <feOffset dy="3"/>
      <feGaussianBlur stdDeviation="2.5"/>
      <feColorMatrix type="matrix" values="0 0 0 0 0 0 0 0 0 0 0 0 0 0 0 0 0 0 0.25 0"/>
      <feBlend mode="normal" in2="BackgroundImageFix" result="effect1_dropShadow"/>
      <feBlend mode="normal" in="SourceGraphic" in2="effect1_dropShadow" result="shape"/>
    </filter>
    <filter id="filter1_d" x="17" y="23" width="60" height="60" filterUnits="userSpaceOnUse" color-interpolation-filters="sRGB">
      <feFlood flood-opacity="0" result="BackgroundImageFix"/>
      <feColorMatrix in="SourceAlpha" type="matrix" values="0 0 0 0 0 0 0 0 0 0 0 0 0 0 0 0 0 0 127 0"/>
      <feOffset dy="3"/>
      <feGaussianBlur stdDeviation="2.5"/>
      <feColorMatrix type="matrix" values="0 0 0 0 0 0 0 0 0 0 0 0 0 0 0 0 0 0 0.25 0"/>
      <feBlend mode="normal" in2="BackgroundImageFix" result="effect1_dropShadow"/>
      <feBlend mode="normal" in="SourceGraphic" in2="effect1_dropShadow" result="shape"/>
    </filter>
  </defs>
</svg>
