<svg width="255" height="100" viewBox="0 0 255 100" fill="none" xmlns="http://www.w3.org/2000/svg">
  <rect width="255" height="100" rx="5" fill="#008DD3"/>
  <g filter="url(#filter0_d)">
    <path d="M113.91 59.42C110.77 59.42 108.16 58.37 106.08 56.27C104.02 54.19 102.99 51.6 102.99 48.5C102.99 45.38 104.02 42.79 106.08 40.73C108.16 38.63 110.77 37.58 113.91 37.58C115.81 37.58 117.56 38.03 119.16 38.93C120.78 39.81 122.04 41.01 122.94 42.53L119.37 44.6C118.85 43.66 118.11 42.93 117.15 42.41C116.19 41.87 115.11 41.6 113.91 41.6C111.87 41.6 110.22 42.24 108.96 43.52C107.72 44.82 107.1 46.48 107.1 48.5C107.1 50.5 107.72 52.15 108.96 53.45C110.22 54.73 111.87 55.37 113.91 55.37C115.11 55.37 116.19 55.11 117.15 54.59C118.13 54.05 118.87 53.32 119.37 52.4L122.94 54.47C122.04 55.99 120.78 57.2 119.16 58.1C117.56 58.98 115.81 59.42 113.91 59.42ZM132.653 59.42C130.593 59.42 128.853 58.96 127.433 58.04C126.013 57.12 125.003 55.85 124.403 54.23L127.943 52.16C128.763 54.3 130.373 55.37 132.773 55.37C133.893 55.37 134.733 55.17 135.293 54.77C135.853 54.37 136.133 53.83 136.133 53.15C136.133 52.41 135.803 51.84 135.143 51.44C134.483 51.02 133.303 50.57 131.603 50.09C129.763 49.53 128.313 48.88 127.253 48.14C125.933 47.16 125.273 45.72 125.273 43.82C125.273 41.9 125.943 40.39 127.283 39.29C128.623 38.15 130.253 37.58 132.173 37.58C133.853 37.58 135.343 37.99 136.643 38.81C137.943 39.63 138.953 40.79 139.673 42.29L136.193 44.3C135.353 42.5 134.013 41.6 132.173 41.6C131.333 41.6 130.663 41.8 130.163 42.2C129.663 42.58 129.413 43.08 129.413 43.7C129.413 44.36 129.683 44.9 130.223 45.32C130.823 45.74 131.883 46.18 133.403 46.64L134.843 47.12C135.103 47.2 135.553 47.37 136.193 47.63C136.793 47.85 137.233 48.06 137.513 48.26C138.493 48.86 139.153 49.48 139.493 50.12C140.013 50.96 140.273 51.95 140.273 53.09C140.273 55.03 139.563 56.57 138.143 57.71C136.723 58.85 134.893 59.42 132.653 59.42ZM149.499 59.42C147.439 59.42 145.699 58.96 144.279 58.04C142.859 57.12 141.849 55.85 141.249 54.23L144.789 52.16C145.609 54.3 147.219 55.37 149.619 55.37C150.739 55.37 151.579 55.17 152.139 54.77C152.699 54.37 152.979 53.83 152.979 53.15C152.979 52.41 152.649 51.84 151.989 51.44C151.329 51.02 150.149 50.57 148.449 50.09C146.609 49.53 145.159 48.88 144.099 48.14C142.779 47.16 142.119 45.72 142.119 43.82C142.119 41.9 142.789 40.39 144.129 39.29C145.469 38.15 147.099 37.58 149.019 37.58C150.699 37.58 152.189 37.99 153.489 38.81C154.789 39.63 155.799 40.79 156.519 42.29L153.039 44.3C152.199 42.5 150.859 41.6 149.019 41.6C148.179 41.6 147.509 41.8 147.009 42.2C146.509 42.58 146.259 43.08 146.259 43.7C146.259 44.36 146.529 44.9 147.069 45.32C147.669 45.74 148.729 46.18 150.249 46.64L151.689 47.12C151.949 47.2 152.399 47.37 153.039 47.63C153.639 47.85 154.079 48.06 154.359 48.26C155.339 48.86 155.999 49.48 156.339 50.12C156.859 50.96 157.119 51.95 157.119 53.09C157.119 55.03 156.409 56.57 154.989 57.71C153.569 58.85 151.739 59.42 149.499 59.42Z" fill="white"/>
  </g>
  <g filter="url(#filter1_d)">
    <path d="M27 20.0017C43.6672 20.0002 60.3328 19.9988 77 20.0017C76.0827 30.2888 75.18 40.5759 74.2246 50.8601C73.6569 57.433 73.0717 64.006 72.4543 70.5747C68.8976 71.5097 65.376 72.5755 61.8208 73.5149C58.5552 74.4659 55.2634 75.3269 51.9963 76.2707H51.8998C48.7908 75.3531 45.6511 74.5458 42.5421 73.6281C38.8727 72.6466 35.2356 71.5518 31.5647 70.5747C31.0863 65.6511 30.6547 60.7246 30.229 55.7981C29.4257 46.6958 28.5523 37.5994 27.7798 28.4956C27.5121 25.7558 27.3204 23.0072 27 20.2732V20.0017ZM52.0783 24.0599C52.0432 26.036 52.1046 28.0136 52.0432 29.9882C46.3255 29.9679 40.6064 29.9839 34.8888 29.9897C34.9868 31.9077 35.2458 33.8127 35.5121 35.7147C40.8317 35.9107 46.1587 35.7075 51.4784 35.8657C46.8244 37.9377 42.1134 39.8891 37.4389 41.9175C37.038 42.0946 36.6094 42.2282 36.2509 42.4866C36.2904 44.5934 36.6328 46.6886 36.7835 48.791C39.6189 48.7809 42.4528 48.7358 45.2882 48.7315C47.5604 48.7199 49.8339 48.7649 52.1061 48.7155C51.9978 52.1799 52.1397 55.6486 52.0329 59.113C50.504 58.8879 48.9941 58.5496 47.4711 58.281C46.2699 58.0211 45.0395 57.8861 43.8559 57.5448C43.6876 55.8824 43.5706 54.2141 43.4214 52.5501C43.079 52.4456 42.7162 52.4558 42.3621 52.4499C40.6445 52.4601 38.9254 52.4441 37.2063 52.4703C37.3745 55.6689 37.6642 58.8632 38.1573 62.0314C39.8515 62.4699 41.5486 62.8997 43.2399 63.357C45.831 64.0569 48.4543 64.6391 51.0497 65.3273C51.3585 65.3927 51.6701 65.5059 51.9905 65.4798C52.1631 67.5837 52.03 69.7006 52.0622 71.8103C52.6606 71.7145 53.2487 71.5678 53.8266 71.3907C58.7396 70.0665 63.6467 68.7176 68.5567 67.3804C68.801 65.4638 68.9151 63.5342 69.1083 61.6132C69.6189 55.7735 70.1339 49.9337 70.6694 44.0954C71.297 37.4164 71.8398 30.7302 72.4718 24.0512C65.673 24.057 58.8756 24.0381 52.0783 24.0599Z" fill="#0170BA"/>
    <path d="M52.0783 24.0599C58.8756 24.0381 65.673 24.057 72.4718 24.0512C71.8398 30.7302 71.297 37.4164 70.6693 44.0954C70.1339 49.9337 69.6189 55.7735 69.1083 61.6132C68.9151 63.5342 68.801 65.4638 68.5567 67.3804C63.6467 68.7176 58.7396 70.0665 53.8266 71.3907C53.2487 71.5678 52.6606 71.7145 52.0622 71.8103C52.03 69.7006 52.1631 67.5837 51.9905 65.4798C52.0344 65.4711 52.1236 65.4536 52.1675 65.4449C56.7366 64.3066 61.275 63.0536 65.8339 61.8746C66.4104 55.4569 67.0497 49.0422 67.455 42.6115C63.5779 42.6318 59.6993 42.6202 55.8222 42.6362C55.2575 42.6391 54.6927 42.6362 54.1309 42.5955C56.2173 41.5298 58.4118 40.6848 60.5538 39.7337C62.6094 38.8088 64.6898 37.942 66.7527 37.0345C67.1507 36.853 67.575 36.702 67.9246 36.432C68.0622 35.9311 68.0549 35.4069 68.109 34.8944C68.2275 33.2682 68.4382 31.6507 68.5172 30.0231C63.0263 29.9795 57.5355 30.0172 52.0431 29.9882C52.1046 28.0136 52.0431 26.036 52.0783 24.0599Z" fill="#29A9DF"/>
    <path d="M52.1061 48.7156C54.7572 48.6706 57.4097 48.7418 60.0622 48.7243C59.9144 51.4148 59.6891 54.1009 59.5487 56.7914C57.9232 57.3184 56.2729 57.7642 54.6343 58.2521C53.7608 58.5163 52.864 58.7254 52.033 59.1131C52.1398 55.6487 51.9978 52.18 52.1061 48.7156Z" fill="#29A9DF"/>
    <path d="M34.8889 29.9895C40.6065 29.9837 46.3256 29.9677 52.0433 29.988C52.1179 36.2314 52.0242 42.4748 52.1062 48.7153C49.8341 48.7647 47.5605 48.7197 45.2883 48.7313C42.4529 48.7357 39.619 48.7807 36.7836 48.7908C36.6329 46.6884 36.2905 44.5932 36.251 42.4865C36.6095 42.228 37.0381 42.0944 37.439 41.9173C42.1135 39.8889 46.8245 37.9375 51.4785 35.8655C46.1588 35.7073 40.8319 35.9106 35.5122 35.7145C35.2459 33.8125 34.9869 31.9075 34.8889 29.9895Z" fill="#CFCFCF"/>
    <path d="M37.2065 52.47C38.9256 52.4439 40.6447 52.4599 42.3624 52.4497C42.7164 52.4555 43.0793 52.4454 43.4216 52.5499C43.5708 54.2138 43.6879 55.8821 43.8561 57.5446C45.0398 57.8858 46.2702 58.0209 47.4714 58.2808C48.9944 58.5494 50.5043 58.8877 52.0332 59.1127C52.1795 61.221 51.9234 63.3437 52.1678 65.4447C52.1239 65.4534 52.0346 65.4708 51.9907 65.4796C51.6703 65.5057 51.3587 65.3924 51.05 65.3271C48.4545 64.6389 45.8313 64.0566 43.2402 63.3568C41.5489 62.8994 39.8518 62.4696 38.1575 62.0312C37.6645 58.863 37.3748 55.6687 37.2065 52.47Z" fill="#CFCFCF"/>
    <path d="M52.0432 29.988C57.5355 30.0171 63.0264 29.9793 68.5172 30.0229C68.4382 31.6505 68.2275 33.268 68.109 34.8942C68.0549 35.4067 68.0622 35.9309 67.9247 36.4318C67.575 36.7019 67.1507 36.8529 66.7528 37.0344C64.6899 37.9418 62.6094 38.8087 60.5538 39.7336C58.4119 40.6846 56.2173 41.5296 54.131 42.5954C54.6928 42.636 55.2575 42.6389 55.8223 42.636C59.6994 42.62 63.5779 42.6317 67.4551 42.6113C67.0498 49.042 66.4104 55.4568 65.834 61.8744C61.2751 63.0534 56.7367 64.3064 52.1676 65.4448C51.9232 63.3438 52.1793 61.221 52.033 59.1128C52.864 58.7251 53.7608 58.516 54.6343 58.2518C56.2729 57.7639 57.9232 57.3182 59.5487 56.7911C59.6891 54.1006 59.9144 51.4145 60.0622 48.724C57.4097 48.7415 54.7572 48.6703 52.1061 48.7153C52.0242 42.4748 52.1178 36.2314 52.0432 29.988Z" fill="white"/>
  </g>
  <defs>
    <filter id="filter0_d" x="97.99" y="35.5801" width="64.1289" height="31.84" filterUnits="userSpaceOnUse" color-interpolation-filters="sRGB">
      <feFlood flood-opacity="0" result="BackgroundImageFix"/>
      <feColorMatrix in="SourceAlpha" type="matrix" values="0 0 0 0 0 0 0 0 0 0 0 0 0 0 0 0 0 0 127 0"/>
      <feOffset dy="3"/>
      <feGaussianBlur stdDeviation="2.5"/>
      <feColorMatrix type="matrix" values="0 0 0 0 0 0 0 0 0 0 0 0 0 0 0 0 0 0 0.25 0"/>
      <feBlend mode="normal" in2="BackgroundImageFix" result="effect1_dropShadow"/>
      <feBlend mode="normal" in="SourceGraphic" in2="effect1_dropShadow" result="shape"/>
    </filter>
    <filter id="filter1_d" x="22" y="18" width="60" height="66.2707" filterUnits="userSpaceOnUse" color-interpolation-filters="sRGB">
      <feFlood flood-opacity="0" result="BackgroundImageFix"/>
      <feColorMatrix in="SourceAlpha" type="matrix" values="0 0 0 0 0 0 0 0 0 0 0 0 0 0 0 0 0 0 127 0"/>
      <feOffset dy="3"/>
      <feGaussianBlur stdDeviation="2.5"/>
      <feColorMatrix type="matrix" values="0 0 0 0 0 0 0 0 0 0 0 0 0 0 0 0 0 0 0.25 0"/>
      <feBlend mode="normal" in2="BackgroundImageFix" result="effect1_dropShadow"/>
      <feBlend mode="normal" in="SourceGraphic" in2="effect1_dropShadow" result="shape"/>
    </filter>
  </defs>
</svg>
