<svg width="255" height="100" viewBox="0 0 255 100" fill="none" xmlns="http://www.w3.org/2000/svg">
  <rect width="255" height="100" rx="5" fill="#206EB8"/>
  <g clip-path="url(#clip0)" filter="url(#filter0_d)">
    <path fill-rule="evenodd" clip-rule="evenodd" d="M203.633 33.8323L210.657 33.8709C210.657 33.8709 197.599 51.5488 196.532 52.9895C196.186 53.456 195.66 53.9592 195.393 54.5829C194.719 56.1507 194.026 59.59 194.026 59.59L187.6 59.6222C187.6 59.6222 188.6 56.037 188.559 54.1275C188.522 52.4595 187.67 50.7934 187.192 49.1204C186.709 47.4268 186.052 44.1129 186.052 44.1129H192.66L193.571 47.7547L203.633 33.8323" fill="white"/>
    <path fill-rule="evenodd" clip-rule="evenodd" d="M190.334 37.5612C191.63 38.3418 192.426 42.6483 192.426 42.6483C192.426 42.6483 185.644 42.7482 181.953 42.7482H178.763L174.89 59.5907H168.967C168.967 59.5907 172.654 41.2872 173.524 37.9687C173.806 36.8942 175.456 37.0787 178.242 37.0787H182.691C185.564 37.0787 188.922 36.7121 190.334 37.5612V37.5612ZM162.76 45.764C162.76 45.764 162.944 44.6829 162.133 43.4309C161.44 42.3636 160.801 42.1153 158.978 42.0583C153.832 41.8968 153.932 45.707 153.932 45.707L162.76 45.764ZM168.341 41.4005C169.095 44.1185 167.658 50.5048 167.658 50.5048C167.658 50.5048 160.151 50.3796 156.039 50.5048C154.761 50.5438 153.23 50.3659 152.85 50.9601C152.314 51.7929 153.045 53.0747 153.665 53.6162C154.378 54.2396 155.768 54.3107 156.267 54.3739C159.604 54.7975 166.589 54.4833 166.589 54.4833L165.379 59.8361C165.379 59.8361 155.509 60.3307 150.572 59.1534C149.597 58.9215 148.683 58.4527 148.065 57.788C147.897 57.6062 147.751 57.3582 147.591 57.144C147.464 56.973 147.093 56.4112 146.926 55.967C145.799 52.965 147.059 47.2139 148.293 44.1319C148.437 43.7749 148.617 43.3218 148.806 42.9369C149.043 42.457 149.243 41.9151 149.432 41.6282C149.56 41.4303 149.717 41.3029 149.85 41.1162C150.002 40.8954 150.179 40.6815 150.344 40.4905C150.799 39.9624 151.317 39.589 151.939 39.1251C153.995 37.5861 157.718 36.3914 162.19 36.8487C163.874 37.0217 166.416 37.6225 167.658 39.3524C167.99 39.8143 168.154 40.7316 168.341 41.4008V41.4005ZM141.174 37.0577L146.918 37.024C146.918 37.024 143.717 52.1935 142.085 59.5907H135.478C130.861 59.5907 126.749 60.162 124.999 56.8593C123.302 53.6526 124.922 48.3791 125.683 44.7963C126.22 42.2607 127.353 37.0783 127.353 37.0783L133.304 37.024C133.304 37.024 131.622 45.0924 130.922 49.1211C130.672 50.5641 130.155 51.9229 130.695 52.9898C131.207 54.0054 131.925 54.0781 134.112 54.1282C134.805 54.1446 137.074 54.1282 137.074 54.1282L141.174 37.0577V37.0577ZM114.292 47.9827C114.894 45.8481 115.771 43.5334 115.659 41.6098C115.539 39.5526 113.812 37.6795 112.698 37.2857C109.342 36.1021 106.201 37.7568 104.952 39.1064C103.337 40.8544 102.79 42.8963 102.218 45.7073C101.792 47.794 101.444 49.997 102.218 51.6245C103.589 54.5017 107.866 53.8733 112.47 53.9009C113.153 52.071 113.718 50.0157 114.292 47.9827ZM122.266 39.5618C122.922 44.3275 120.405 49.5879 118.671 54.1623C120.439 54.3218 121.988 54.1377 122.1 54.2694C122.216 54.4401 120.915 59.7296 120.461 59.7434C119.058 59.7797 114.409 59.8184 112.47 59.8184C106.143 59.8184 100.225 60.2302 97.2065 57.0873C95.9809 55.8104 95.1333 53.6205 94.928 52.0798C94.5864 49.5079 95.0146 46.6763 95.6117 44.3416C96.1517 42.2336 96.8439 40.2445 97.8898 38.4234C100.548 33.7874 105.173 30.3461 112.925 31.1405C114.429 31.2951 116.588 31.9529 117.937 32.7336C118.03 32.7883 118.357 33.0477 118.431 33.0932C120.254 34.2519 121.915 37.0171 122.266 39.5618V39.5618ZM94.2742 37.0852C93.8916 38.8263 93.5089 40.8 93.1056 42.5205H86.7268C87.221 40.6133 87.5994 38.7172 88.0938 37.058C90.1349 37.058 92.0328 37.0852 94.2745 37.0852H94.2742ZM86.499 44.1139H92.6502C91.8459 48.5612 90.2533 55.735 89.005 60.7287C88.2237 63.8539 87.702 66.1342 85.5878 67.7843C85.3986 67.9324 85.2894 67.8619 85.132 68.012C84.7425 68.3831 82.9404 68.8136 81.9429 68.9223C80.3209 69.0979 78.487 68.9453 76.4934 68.9043C77.0151 66.9994 77.6053 64.7119 78.0702 63.0045C82.9296 63.5922 83.0525 59.0033 83.9932 54.5836C84.5375 52.0297 86.1871 45.1379 86.499 44.1139" fill="white"/>
    <path fill-rule="evenodd" clip-rule="evenodd" d="M72.1461 55.7222L72.0143 56.0635C69.7683 60.4335 65.788 63.1145 60.111 63.2328C57.457 63.2875 54.9284 62.6071 53.2765 61.8674C49.7116 60.2671 46.7131 57.2995 45.0756 54.1288C42.7266 49.5836 42.303 43.2608 47.1872 38.5383C47.2627 38.5383 46.5947 39.5624 46.6702 39.5624L46.5357 39.9994C43.0162 51.0082 53.8598 60.4427 64.4007 59.3636C66.934 59.1042 70.1643 57.7182 72.1461 55.7222Z" fill="#4AA6FC"/>
    <path fill-rule="evenodd" clip-rule="evenodd" d="M65.7674 51.1702C68.4193 51.1882 71.1893 49.95 72.8297 48.2115C71.3946 51.8509 67.2392 54.1902 61.6671 53.4463C57.0013 52.8226 52.5567 48.1319 52.099 43.4316C51.7642 40.011 52.9574 37.9695 54.9238 35.4929C54.2405 36.7882 53.985 37.787 53.9214 38.4242C53.1745 45.8237 59.8378 51.1312 65.7674 51.1702" fill="#4AA6FC"/>
    <path fill-rule="evenodd" clip-rule="evenodd" d="M72.5627 41.9789C72.1506 42.9236 69.777 44.7077 68.7287 44.9308C64.578 45.8143 61.9198 43.8478 60.5273 41.61C60.3204 41.2759 59.9377 40.3632 59.8692 40.131C59.3292 38.2965 59.5774 35.5218 61.1883 34.0857C60.703 35.4514 60.6322 37.0376 60.8876 38.0688C61.0424 38.6922 61.5139 39.7808 61.9857 40.4654C62.8441 41.7126 63.3888 42.0156 64.4914 42.678C64.9882 42.9761 65.521 43.2152 65.7512 43.2807C66.7968 43.5883 69.0045 44.3984 72.5631 41.9789" fill="#4AA6FC"/>
  </g>
  <defs>
    <filter id="filter0_d" x="38" y="29" width="178" height="48" filterUnits="userSpaceOnUse" color-interpolation-filters="sRGB">
      <feFlood flood-opacity="0" result="BackgroundImageFix"/>
      <feColorMatrix in="SourceAlpha" type="matrix" values="0 0 0 0 0 0 0 0 0 0 0 0 0 0 0 0 0 0 127 0"/>
      <feOffset dy="3"/>
      <feGaussianBlur stdDeviation="2.5"/>
      <feColorMatrix type="matrix" values="0 0 0 0 0 0 0 0 0 0 0 0 0 0 0 0 0 0 0.25 0"/>
      <feBlend mode="normal" in2="BackgroundImageFix" result="effect1_dropShadow"/>
      <feBlend mode="normal" in="SourceGraphic" in2="effect1_dropShadow" result="shape"/>
    </filter>
    <clipPath id="clip0">
      <rect width="168" height="38" fill="white" transform="translate(43 31)"/>
    </clipPath>
  </defs>
</svg>
