<svg width="255" height="100" viewBox="0 0 255 100" fill="none" xmlns="http://www.w3.org/2000/svg">
  <rect width="255" height="100" rx="5" fill="#EAD000"/>
  <g filter="url(#filter0_d)">
    <path d="M75 27H25V77H75V27Z" fill="#F7DF1E"/>
    <path d="M58.5873 66.0627C59.5944 67.7072 60.9047 68.9159 63.2222 68.9159C65.169 68.9159 66.4127 67.9429 66.4127 66.5984C66.4127 64.9873 65.1349 64.4167 62.992 63.4794L61.8174 62.9754C58.4269 61.531 56.1746 59.7214 56.1746 55.896C56.1746 52.3722 58.8595 49.6897 63.0555 49.6897C66.0428 49.6897 68.1904 50.7294 69.7381 53.4516L66.0793 55.8008C65.2738 54.3564 64.4047 53.7873 63.0555 53.7873C61.6793 53.7873 60.8071 54.6603 60.8071 55.8008C60.8071 57.2103 61.6801 57.781 63.696 58.654L64.8706 59.1572C68.8627 60.8691 71.1166 62.6143 71.1166 66.5381C71.1166 70.7683 67.7936 73.0857 63.3309 73.0857C58.9674 73.0857 56.1484 71.0064 54.769 68.281L58.5873 66.0627ZM41.9896 66.4698C42.7277 67.7794 43.3992 68.8865 45.0135 68.8865C46.5571 68.8865 47.5309 68.2825 47.5309 65.9341V49.9579H52.2293V65.9976C52.2293 70.8627 49.3769 73.077 45.2135 73.077C41.4515 73.077 39.273 71.1302 38.165 68.7853L41.9896 66.4698Z" fill="black"/>
  </g>
  <g filter="url(#filter1_d)">
    <path d="M91.92 62.42C88.62 62.42 86.31 61.09 84.99 58.43L88.56 56.39C89.22 57.71 90.34 58.37 91.92 58.37C93 58.37 93.81 58.12 94.35 57.62C94.91 57.1 95.19 56.38 95.19 55.46V41H99.3V55.46C99.3 57.66 98.61 59.37 97.23 60.59C95.87 61.81 94.1 62.42 91.92 62.42ZM114.104 48.77V47H117.974V62H114.104V60.23C112.944 61.69 111.314 62.42 109.214 62.42C107.214 62.42 105.494 61.66 104.054 60.14C102.634 58.6 101.924 56.72 101.924 54.5C101.924 52.3 102.634 50.43 104.054 48.89C105.494 47.35 107.214 46.58 109.214 46.58C111.314 46.58 112.944 47.31 114.104 48.77ZM106.964 57.56C107.744 58.34 108.734 58.73 109.934 58.73C111.134 58.73 112.124 58.34 112.904 57.56C113.704 56.76 114.104 55.74 114.104 54.5C114.104 53.26 113.704 52.25 112.904 51.47C112.124 50.67 111.134 50.27 109.934 50.27C108.734 50.27 107.744 50.67 106.964 51.47C106.184 52.25 105.794 53.26 105.794 54.5C105.794 55.74 106.184 56.76 106.964 57.56ZM127.693 57.5L131.353 47H135.613L129.913 62H125.503L119.803 47H124.063L127.693 57.5ZM148.293 48.77V47H152.163V62H148.293V60.23C147.133 61.69 145.503 62.42 143.403 62.42C141.403 62.42 139.683 61.66 138.243 60.14C136.823 58.6 136.113 56.72 136.113 54.5C136.113 52.3 136.823 50.43 138.243 48.89C139.683 47.35 141.403 46.58 143.403 46.58C145.503 46.58 147.133 47.31 148.293 48.77ZM141.153 57.56C141.933 58.34 142.923 58.73 144.123 58.73C145.323 58.73 146.313 58.34 147.093 57.56C147.893 56.76 148.293 55.74 148.293 54.5C148.293 53.26 147.893 52.25 147.093 51.47C146.313 50.67 145.323 50.27 144.123 50.27C142.923 50.27 141.933 50.67 141.153 51.47C140.373 52.25 139.983 53.26 139.983 54.5C139.983 55.74 140.373 56.76 141.153 57.56ZM159.125 51.26C159.125 51.9 160.035 52.45 161.855 52.91C162.495 53.05 163.075 53.22 163.595 53.42C164.115 53.6 164.635 53.87 165.155 54.23C165.695 54.57 166.115 55.03 166.415 55.61C166.715 56.19 166.865 56.86 166.865 57.62C166.865 59.16 166.285 60.35 165.125 61.19C163.965 62.01 162.535 62.42 160.835 62.42C157.755 62.42 155.655 61.23 154.535 58.85L157.895 56.96C158.355 58.26 159.335 58.91 160.835 58.91C162.215 58.91 162.905 58.48 162.905 57.62C162.905 56.98 161.995 56.43 160.175 55.97C159.495 55.79 158.915 55.61 158.435 55.43C157.955 55.25 157.435 54.99 156.875 54.65C156.315 54.29 155.885 53.84 155.585 53.3C155.305 52.74 155.165 52.09 155.165 51.35C155.165 49.87 155.705 48.71 156.785 47.87C157.885 47.01 159.245 46.58 160.865 46.58C162.085 46.58 163.195 46.86 164.195 47.42C165.195 47.96 165.985 48.74 166.565 49.76L163.265 51.56C162.785 50.54 161.985 50.03 160.865 50.03C160.365 50.03 159.945 50.15 159.605 50.39C159.285 50.61 159.125 50.9 159.125 51.26ZM176.289 62.42C174.029 62.42 172.139 61.66 170.619 60.14C169.119 58.62 168.369 56.74 168.369 54.5C168.369 52.26 169.119 50.38 170.619 48.86C172.139 47.34 174.029 46.58 176.289 46.58C177.749 46.58 179.079 46.93 180.279 47.63C181.479 48.33 182.389 49.27 183.009 50.45L179.679 52.4C179.379 51.78 178.919 51.29 178.299 50.93C177.699 50.57 177.019 50.39 176.259 50.39C175.099 50.39 174.139 50.78 173.379 51.56C172.619 52.32 172.239 53.3 172.239 54.5C172.239 55.66 172.619 56.64 173.379 57.44C174.139 58.2 175.099 58.58 176.259 58.58C177.039 58.58 177.729 58.41 178.329 58.07C178.949 57.71 179.409 57.22 179.709 56.6L183.069 58.52C182.409 59.72 181.469 60.67 180.249 61.37C179.049 62.07 177.729 62.42 176.289 62.42ZM189.103 47V49.58C189.443 48.64 190.023 47.93 190.843 47.45C191.663 46.95 192.603 46.7 193.663 46.7V51.02C192.483 50.86 191.423 51.1 190.483 51.74C189.563 52.36 189.103 53.39 189.103 54.83V62H185.233V47H189.103ZM197.846 45.2C197.206 45.2 196.646 44.97 196.166 44.51C195.706 44.03 195.476 43.47 195.476 42.83C195.476 42.19 195.706 41.63 196.166 41.15C196.646 40.67 197.206 40.43 197.846 40.43C198.506 40.43 199.066 40.67 199.526 41.15C200.006 41.63 200.246 42.19 200.246 42.83C200.246 43.47 200.006 44.03 199.526 44.51C199.066 44.97 198.506 45.2 197.846 45.2ZM199.796 62H195.926V47H199.796V62ZM212.068 46.58C214.088 46.58 215.808 47.35 217.228 48.89C218.668 50.43 219.388 52.3 219.388 54.5C219.388 56.74 218.668 58.62 217.228 60.14C215.828 61.66 214.108 62.42 212.068 62.42C209.968 62.42 208.348 61.69 207.208 60.23V68H203.338V47H207.208V48.77C208.348 47.31 209.968 46.58 212.068 46.58ZM208.378 57.56C209.158 58.34 210.148 58.73 211.348 58.73C212.548 58.73 213.538 58.34 214.318 57.56C215.118 56.76 215.518 55.74 215.518 54.5C215.518 53.26 215.118 52.25 214.318 51.47C213.538 50.67 212.548 50.27 211.348 50.27C210.148 50.27 209.158 50.67 208.378 51.47C207.598 52.25 207.208 53.26 207.208 54.5C207.208 55.74 207.598 56.76 208.378 57.56ZM230.375 47V50.72H226.985V56.96C226.985 57.48 227.115 57.86 227.375 58.1C227.635 58.34 228.015 58.48 228.515 58.52C229.015 58.54 229.635 58.53 230.375 58.49V62C227.755 62.3 225.885 62.06 224.765 61.28C223.665 60.48 223.115 59.04 223.115 56.96V50.72H220.505V47H223.115V43.97L226.985 42.8V47H230.375Z" fill="white"/>
  </g>
  <defs>
    <filter id="filter0_d" x="20" y="25" width="60" height="60" filterUnits="userSpaceOnUse" color-interpolation-filters="sRGB">
      <feFlood flood-opacity="0" result="BackgroundImageFix"/>
      <feColorMatrix in="SourceAlpha" type="matrix" values="0 0 0 0 0 0 0 0 0 0 0 0 0 0 0 0 0 0 127 0"/>
      <feOffset dy="3"/>
      <feGaussianBlur stdDeviation="2.5"/>
      <feColorMatrix type="matrix" values="0 0 0 0 0 0 0 0 0 0 0 0 0 0 0 0 0 0 0.25 0"/>
      <feBlend mode="normal" in2="BackgroundImageFix" result="effect1_dropShadow"/>
      <feBlend mode="normal" in="SourceGraphic" in2="effect1_dropShadow" result="shape"/>
    </filter>
    <filter id="filter1_d" x="79.99" y="38.4299" width="155.385" height="37.57" filterUnits="userSpaceOnUse" color-interpolation-filters="sRGB">
      <feFlood flood-opacity="0" result="BackgroundImageFix"/>
      <feColorMatrix in="SourceAlpha" type="matrix" values="0 0 0 0 0 0 0 0 0 0 0 0 0 0 0 0 0 0 127 0"/>
      <feOffset dy="3"/>
      <feGaussianBlur stdDeviation="2.5"/>
      <feColorMatrix type="matrix" values="0 0 0 0 0 0 0 0 0 0 0 0 0 0 0 0 0 0 0.25 0"/>
      <feBlend mode="normal" in2="BackgroundImageFix" result="effect1_dropShadow"/>
      <feBlend mode="normal" in="SourceGraphic" in2="effect1_dropShadow" result="shape"/>
    </filter>
  </defs>
</svg>
