<svg width="255" height="100" viewBox="0 0 255 101" fill="none" xmlns="http://www.w3.org/2000/svg">
<rect y="0.0617676" width="255" height="100" rx="5" fill="#FF1E10"/>
<g filter="url(#filter0_d)">
<path d="M105.694 37.3881V57.8361H115.306V62.5881H100.726V37.3881H105.694ZM131.241 46.7121V44.5881H135.885V62.5881H131.241V60.4641C129.849 62.2161 127.893 63.0921 125.373 63.0921C122.973 63.0921 120.909 62.1801 119.181 60.3561C117.477 58.5081 116.625 56.2521 116.625 53.5881C116.625 50.9481 117.477 48.7041 119.181 46.8561C120.909 45.0081 122.973 44.0841 125.373 44.0841C127.893 44.0841 129.849 44.9601 131.241 46.7121ZM122.673 57.2601C123.609 58.1961 124.797 58.6641 126.237 58.6641C127.677 58.6641 128.865 58.1961 129.801 57.2601C130.761 56.3001 131.241 55.0761 131.241 53.5881C131.241 52.1001 130.761 50.8881 129.801 49.9521C128.865 48.9921 127.677 48.5121 126.237 48.5121C124.797 48.5121 123.609 48.9921 122.673 49.9521C121.737 50.8881 121.269 52.1001 121.269 53.5881C121.269 55.0761 121.737 56.3001 122.673 57.2601ZM144.74 44.5881V47.6841C145.148 46.5561 145.844 45.7041 146.828 45.1281C147.812 44.5281 148.94 44.2281 150.212 44.2281V49.4121C148.796 49.2201 147.524 49.5081 146.396 50.2761C145.292 51.0201 144.74 52.2561 144.74 53.9841V62.5881H140.096V44.5881H144.74ZM165.94 46.7121V44.5881H170.584V62.5881H165.94V60.4641C164.548 62.2161 162.592 63.0921 160.072 63.0921C157.672 63.0921 155.608 62.1801 153.88 60.3561C152.176 58.5081 151.324 56.2521 151.324 53.5881C151.324 50.9481 152.176 48.7041 153.88 46.8561C155.608 45.0081 157.672 44.0841 160.072 44.0841C162.592 44.0841 164.548 44.9601 165.94 46.7121ZM157.372 57.2601C158.308 58.1961 159.496 58.6641 160.936 58.6641C162.376 58.6641 163.564 58.1961 164.5 57.2601C165.46 56.3001 165.94 55.0761 165.94 53.5881C165.94 52.1001 165.46 50.8881 164.5 49.9521C163.564 48.9921 162.376 48.5121 160.936 48.5121C159.496 48.5121 158.308 48.9921 157.372 49.9521C156.436 50.8881 155.968 52.1001 155.968 53.5881C155.968 55.0761 156.436 56.3001 157.372 57.2601ZM182.247 57.1881L186.639 44.5881H191.751L184.911 62.5881H179.619L172.779 44.5881H177.891L182.247 57.1881ZM210.783 55.4961H197.211C197.811 57.7521 199.503 58.8801 202.287 58.8801C204.063 58.8801 205.407 58.2801 206.319 57.0801L210.063 59.2401C208.287 61.8081 205.671 63.0921 202.215 63.0921C199.239 63.0921 196.851 62.1921 195.051 60.3921C193.251 58.5921 192.351 56.3241 192.351 53.5881C192.351 50.9001 193.239 48.6441 195.015 46.8201C196.767 44.9961 199.047 44.0841 201.855 44.0841C204.519 44.0841 206.691 44.9961 208.371 46.8201C210.099 48.6441 210.963 50.9001 210.963 53.5881C210.963 54.0921 210.903 54.7281 210.783 55.4961ZM197.139 51.8961H206.319C206.055 50.7201 205.515 49.8201 204.699 49.1961C203.907 48.5721 202.959 48.2601 201.855 48.2601C200.607 48.2601 199.575 48.5841 198.759 49.2321C197.943 49.8561 197.403 50.7441 197.139 51.8961ZM218.849 62.5881H214.205V36.3081H218.849V62.5881Z" fill="white"/>
</g>
<g filter="url(#filter1_d)">
<path d="M77.6041 39.6561C77.5983 39.6303 77.583 39.6085 77.5754 39.5827C77.5581 39.5371 77.5447 39.4895 77.5218 39.4478C77.5064 39.4201 77.4835 39.3963 77.4643 39.3705C77.4394 39.3368 77.4184 39.2991 77.3897 39.2693C77.3648 39.2435 77.3342 39.2257 77.3073 39.2039C77.2767 39.1781 77.2499 39.1503 77.2155 39.1305L67.1743 33.1403C66.9159 32.9856 66.5981 32.9856 66.3397 33.1403L56.2986 39.1305C56.2641 39.1503 56.2373 39.1801 56.2067 39.2039C56.1799 39.2257 56.1492 39.2435 56.1243 39.2693C56.0956 39.2991 56.0746 39.3368 56.0497 39.3705C56.0305 39.3963 56.0076 39.4201 55.9923 39.4478C55.9693 39.4895 55.954 39.5371 55.9386 39.5827C55.9291 39.6065 55.9157 39.6303 55.9099 39.6561C55.8908 39.7295 55.8812 39.8049 55.8812 39.8822V51.2596L47.5133 56.2521V33.9932C47.5133 33.9159 47.5037 33.8405 47.4846 33.7671C47.4788 33.7413 47.4635 33.7195 47.4559 33.6937C47.4386 33.6481 47.4252 33.6005 47.4023 33.5588C47.387 33.5311 47.364 33.5073 47.3448 33.4815C47.3199 33.4478 47.2989 33.4101 47.2702 33.3803C47.2453 33.3545 47.2147 33.3367 47.1879 33.3149C47.1572 33.2891 47.1304 33.2613 47.096 33.2415L37.0549 27.2513C36.7964 27.0966 36.4786 27.0966 36.2202 27.2513L26.1791 33.2415C26.1446 33.2613 26.1178 33.2911 26.0872 33.3149C26.0604 33.3367 26.0297 33.3545 26.0048 33.3803C25.9761 33.4101 25.9551 33.4478 25.9302 33.4815C25.911 33.5073 25.8881 33.5311 25.8728 33.5588C25.8498 33.6005 25.8345 33.6481 25.8192 33.6937C25.8096 33.7175 25.7962 33.7413 25.7904 33.7671C25.7713 33.8405 25.7617 33.9159 25.7617 33.9932V69.6288C25.7617 69.9382 25.9225 70.2259 26.181 70.3806L46.2651 82.3609C46.3091 82.3867 46.357 82.4026 46.4029 82.4204C46.424 82.4284 46.4451 82.4422 46.468 82.4482C46.5389 82.468 46.6097 82.4779 46.6824 82.4779C46.7552 82.4779 46.826 82.468 46.8969 82.4482C46.916 82.4422 46.9332 82.4303 46.9524 82.4244C47.0022 82.4065 47.0519 82.3887 47.0979 82.3629L67.182 70.3825C67.4424 70.2278 67.6013 69.9422 67.6013 69.6308V58.2534L77.2231 52.5132C77.4835 52.3585 77.6424 52.0728 77.6424 51.7614V39.8822C77.6328 39.8049 77.6213 39.7295 77.6041 39.6561ZM46.6671 68.6311L38.3145 63.7338L47.0864 58.5014L56.7102 52.7611L65.0704 57.7476L58.9366 61.3755L46.6671 68.6311ZM65.9166 46.3742V56.2521L62.4017 54.1555L57.5468 51.2596V41.3818L61.0616 43.4783L65.9166 46.3742ZM66.7532 34.8917L75.1173 39.8822L66.7532 44.8727L58.3891 39.8822L66.7532 34.8917ZM40.9794 60.1457L37.4645 62.2423V40.4852L42.3195 37.5893L45.8344 35.4927V57.2478L40.9794 60.1457ZM36.6279 29.0047L44.992 33.9952L36.6279 38.9857L28.2639 33.9952L36.6279 29.0047ZM27.4215 35.4927L30.9364 37.5893L35.7913 40.4852V63.7398V63.7418V63.7438C35.7913 63.7775 35.8009 63.8092 35.8047 63.841C35.8105 63.8826 35.8105 63.9262 35.822 63.9679V63.9699C35.8315 64.0036 35.8488 64.0353 35.8622 64.0671C35.8775 64.1028 35.8871 64.1425 35.9062 64.1762C35.9062 64.1762 35.9062 64.1782 35.9081 64.1782C35.9253 64.2079 35.9502 64.2337 35.9713 64.2615C35.9943 64.2932 36.0134 64.3249 36.0402 64.3527L36.0421 64.3547C36.0651 64.3785 36.0957 64.3963 36.1225 64.4182C36.1532 64.442 36.18 64.4697 36.2125 64.4896C36.2144 64.4896 36.2144 64.4896 36.2163 64.4915C36.2183 64.4915 36.2183 64.4935 36.2202 64.4935L45.8382 70.1326V80.1077L27.4215 69.127V35.4927ZM65.9166 69.127L47.5056 80.1096V70.1326L61.1401 62.0677L65.9166 59.2432V69.127ZM75.9577 51.2596L67.5898 56.2521V46.3742L72.4447 43.4783L75.9596 41.3818V51.2596H75.9577Z" fill="white"/>
</g>
<defs>
<filter id="filter0_d" x="95.7258" y="34.3081" width="128.123" height="36.784" filterUnits="userSpaceOnUse" color-interpolation-filters="sRGB">
<feFlood flood-opacity="0" result="BackgroundImageFix"/>
<feColorMatrix in="SourceAlpha" type="matrix" values="0 0 0 0 0 0 0 0 0 0 0 0 0 0 0 0 0 0 127 0"/>
<feOffset dy="3"/>
<feGaussianBlur stdDeviation="2.5"/>
<feColorMatrix type="matrix" values="0 0 0 0 0 0 0 0 0 0 0 0 0 0 0 0 0 0 0.25 0"/>
<feBlend mode="normal" in2="BackgroundImageFix" result="effect1_dropShadow"/>
<feBlend mode="normal" in="SourceGraphic" in2="effect1_dropShadow" result="shape"/>
</filter>
<filter id="filter1_d" x="20.7617" y="25.1353" width="61.8807" height="65.3427" filterUnits="userSpaceOnUse" color-interpolation-filters="sRGB">
<feFlood flood-opacity="0" result="BackgroundImageFix"/>
<feColorMatrix in="SourceAlpha" type="matrix" values="0 0 0 0 0 0 0 0 0 0 0 0 0 0 0 0 0 0 127 0"/>
<feOffset dy="3"/>
<feGaussianBlur stdDeviation="2.5"/>
<feColorMatrix type="matrix" values="0 0 0 0 0 0 0 0 0 0 0 0 0 0 0 0 0 0 0.25 0"/>
<feBlend mode="normal" in2="BackgroundImageFix" result="effect1_dropShadow"/>
<feBlend mode="normal" in="SourceGraphic" in2="effect1_dropShadow" result="shape"/>
</filter>
</defs>
</svg>
