<svg width="255" height="100" viewBox="0 0 255 100" fill="none" xmlns="http://www.w3.org/2000/svg">
  <rect width="255" height="100" rx="5" fill="#2F6F2F"/>
  <g clip-path="url(#clip0)" filter="url(#filter0_d)">
    <path d="M126.817 87.0002C126.425 87.0002 126.034 86.897 125.69 86.6984L122.102 84.5709C121.567 84.2707 121.828 84.1645 122.005 84.1034C122.719 83.8528 122.864 83.7962 123.627 83.3624C123.707 83.3166 123.812 83.3328 123.894 83.3813L126.65 85.0195C126.75 85.0734 126.891 85.0734 126.983 85.0195L137.73 78.8061C137.83 78.7495 137.894 78.6337 137.894 78.5151V66.0938C137.894 65.9698 137.83 65.8594 137.728 65.7974L126.985 59.5894C126.886 59.5301 126.754 59.5301 126.655 59.5894L115.914 65.7974C115.81 65.8567 115.744 65.9725 115.744 66.0911V78.5124C115.744 78.631 115.809 78.7441 115.911 78.8007L118.854 80.5036C120.452 81.3039 121.428 80.3608 121.428 79.4124V67.1527C121.428 66.9776 121.565 66.8428 121.74 66.8428H123.101C123.271 66.8428 123.411 66.9776 123.411 67.1527V79.4178C123.411 81.5517 122.249 82.7777 120.228 82.7777C119.607 82.7777 119.117 82.7777 117.751 82.1041L114.932 80.4767C114.589 80.2764 114.304 79.9896 114.107 79.645C113.909 79.3004 113.805 78.9099 113.804 78.5124V66.0911C113.804 65.2828 114.235 64.5283 114.932 64.1295L125.689 57.9135C126.37 57.5282 127.274 57.5282 127.949 57.9135L138.693 64.1322C139.035 64.3319 139.32 64.6182 139.518 64.9623C139.715 65.3065 139.82 65.6967 139.82 66.0938V78.5151C139.82 79.3208 139.387 80.0725 138.693 80.4767L127.949 86.6927C127.604 86.8914 127.214 86.9955 126.816 86.9945" fill="#689F63"/>
    <path d="M130.137 78.4412C125.435 78.4412 124.449 76.2792 124.449 74.4658C124.449 74.2934 124.588 74.156 124.76 74.156H126.148C126.301 74.156 126.43 74.2678 126.455 74.4195C126.665 75.8362 127.289 76.5508 130.132 76.5508C132.397 76.5508 133.36 76.0383 133.36 74.8352C133.36 74.1428 133.086 73.6281 129.567 73.2832C126.624 72.9922 124.806 72.3429 124.806 69.9853C124.806 67.8135 126.635 66.5202 129.699 66.5202C133.139 66.5202 134.845 67.7165 135.06 70.287C135.064 70.3303 135.058 70.3737 135.044 70.4148C135.03 70.4558 135.008 70.4934 134.978 70.5253C134.949 70.5572 134.914 70.5827 134.874 70.6001C134.834 70.6175 134.791 70.6265 134.748 70.6265H133.352C133.207 70.6265 133.08 70.5241 133.051 70.384C132.714 68.894 131.902 68.4171 129.694 68.4171C127.221 68.4171 126.934 69.2793 126.934 69.926C126.934 70.7101 127.272 70.9391 130.608 71.381C133.912 71.8202 135.48 72.4399 135.48 74.7652C135.48 77.1093 133.527 78.4539 130.121 78.4539L130.137 78.4412ZM143.211 65.2808H143.571C143.867 65.2808 143.924 65.0733 143.924 64.9521C143.924 64.6341 143.706 64.6341 143.585 64.6341H143.214L143.211 65.2808ZM142.773 64.2623H143.571C143.846 64.2623 144.384 64.2623 144.384 64.8766C144.384 65.305 144.109 65.3939 143.945 65.4478C144.266 65.4694 144.287 65.6796 144.33 65.9759C144.352 66.1619 144.387 66.4825 144.451 66.5903H143.959C143.945 66.4825 143.87 65.8897 143.87 65.8574C143.838 65.7254 143.792 65.6607 143.628 65.6607H143.222V66.593H142.773V64.2623ZM141.812 65.4209C141.812 66.3855 142.59 67.1669 143.545 67.1669C144.508 67.1669 145.285 66.3693 145.285 65.4209C145.285 64.4536 144.497 63.6857 143.542 63.6857C142.6 63.6857 141.809 64.4428 141.809 65.4182L141.812 65.4209ZM145.619 65.4263C145.619 66.5687 144.685 67.501 143.547 67.501C142.417 67.501 141.476 66.5795 141.476 65.4263C141.476 64.2515 142.439 63.3516 143.547 63.3516C144.664 63.3516 145.616 64.2542 145.616 65.4263" fill="#689F63"/>
    <path fill-rule="evenodd" clip-rule="evenodd" d="M93.5382 38.3983C93.5382 37.9025 93.2773 37.4472 92.8501 37.2006L81.4562 30.6343C81.2656 30.523 81.0504 30.461 80.8299 30.4538H80.7121C80.4937 30.4618 80.2782 30.5211 80.0826 30.6343L68.6892 37.2006C68.4797 37.3227 68.3058 37.4977 68.1849 37.708C68.064 37.9184 68.0002 38.1569 68 38.3996L68.025 56.0859C68.025 56.3311 68.1514 56.5601 68.3667 56.6814C68.5765 56.8107 68.8401 56.8107 69.0499 56.6814L75.8235 52.796C76.2512 52.5411 76.5121 52.0906 76.5121 51.5997V43.3372C76.5116 43.0952 76.5749 42.8574 76.6956 42.6478C76.8163 42.4382 76.9901 42.2643 77.1994 42.1435L80.0832 40.48C80.2923 40.3583 80.5299 40.2944 80.7718 40.2946C81.0075 40.2946 81.248 40.3555 81.4562 40.4797L84.3386 42.1427C84.7652 42.3879 85.0272 42.8433 85.0272 43.3364V51.5983C85.0272 52.0887 85.2916 52.5414 85.7172 52.7946L92.4864 56.6773C92.5906 56.7395 92.7095 56.7723 92.8308 56.7723C92.952 56.7723 93.071 56.7395 93.1751 56.6773C93.2788 56.6164 93.3648 56.5294 93.4246 56.4249C93.4844 56.3205 93.516 56.2022 93.5162 56.0818L93.5382 38.3983ZM147.304 47.6068C147.304 47.7299 147.238 47.8439 147.132 47.9048L143.218 50.1643C143.166 50.1944 143.107 50.2102 143.046 50.2102C142.986 50.2102 142.927 50.1944 142.875 50.1643L138.961 47.9048C138.853 47.8436 138.788 47.7296 138.788 47.6068V43.0812C138.788 42.9578 138.853 42.8441 138.958 42.7821L142.869 40.5188C142.977 40.4568 143.109 40.4568 143.216 40.5188L147.13 42.7821C147.238 42.8441 147.302 42.9578 147.302 43.0812L147.304 47.6068ZM148.361 14.0875C148.256 14.0291 148.138 13.999 148.018 14.0003C147.898 14.0016 147.78 14.0341 147.677 14.0948C147.467 14.2187 147.337 14.445 147.337 14.6902V32.2041C147.337 32.2887 147.315 32.372 147.273 32.4453C147.231 32.5187 147.17 32.5796 147.097 32.622C147.023 32.6643 146.94 32.6866 146.856 32.6865C146.771 32.6865 146.688 32.6641 146.615 32.6217L143.761 30.9751C143.552 30.8541 143.315 30.7904 143.073 30.7904C142.832 30.7904 142.595 30.8541 142.386 30.9751L130.988 37.5638C130.779 37.6843 130.605 37.8577 130.484 38.0668C130.363 38.2759 130.3 38.5132 130.299 38.7548V51.9359C130.299 52.429 130.562 52.8817 130.988 53.1296L142.386 59.7228C142.811 59.968 143.335 59.968 143.762 59.7228L155.16 53.1269C155.585 52.879 155.849 52.4263 155.849 51.9332V19.0827C155.848 18.8371 155.782 18.596 155.658 18.3843C155.534 18.1726 155.355 17.9979 155.141 17.8783L148.361 14.0875ZM186.316 42.9621C186.524 42.8408 186.696 42.6669 186.816 42.4579C186.937 42.2488 187 42.0118 187 41.7706V38.5761C187 38.0847 186.739 37.6312 186.315 37.3838L174.989 30.7986C174.78 30.6769 174.542 30.6127 174.299 30.6127C174.057 30.6127 173.819 30.6769 173.609 30.7986L162.214 37.3865C161.787 37.6344 161.526 38.0871 161.526 38.5802V51.7559C161.526 52.2517 161.792 52.7098 162.22 52.955L173.542 59.4189C173.959 59.6587 174.47 59.6614 174.893 59.427L181.741 55.6144C181.957 55.4931 182.094 55.2641 182.094 55.0162C182.094 54.7683 181.962 54.5366 181.747 54.4153L170.282 47.8248C170.067 47.7035 169.935 47.4745 169.935 47.2293V43.096C169.935 42.8492 170.064 42.6218 170.279 42.4989L173.846 40.4377C174.059 40.3138 174.32 40.3138 174.532 40.4377L178.102 42.4989C178.314 42.6202 178.446 42.8492 178.446 43.0944V46.3439C178.446 46.5891 178.578 46.8181 178.79 46.9421C179.003 47.0633 179.267 47.0633 179.479 46.9394L186.316 42.9621Z" fill="white"/>
    <path fill-rule="evenodd" clip-rule="evenodd" d="M174.133 42.3454C174.173 42.3219 174.218 42.3096 174.265 42.3096C174.311 42.3096 174.357 42.3219 174.397 42.3454L176.584 43.6091C176.665 43.6565 176.715 43.7438 176.715 43.8381V46.3682C176.715 46.4625 176.665 46.5498 176.584 46.5972L174.397 47.8609C174.357 47.8843 174.311 47.8967 174.265 47.8967C174.218 47.8967 174.173 47.8843 174.133 47.8609L171.947 46.5972C171.907 46.5743 171.873 46.5411 171.849 46.5009C171.825 46.4606 171.813 46.4148 171.813 46.3682V43.8381C171.813 43.7438 171.861 43.6565 171.945 43.6091L174.133 42.3454Z" fill="#689F63"/>
    <path d="M136.074 36.3037L104.139 20.6248L87.7644 54.0826L119.699 69.7623L136.074 36.3037Z" fill="url(#paint0_linear)"/>
    <path d="M85.6909 40.941L108.24 71.5102L138.062 49.4411L115.511 18.8728L85.6909 40.941Z" fill="url(#paint1_linear)"/>
    <path d="M99.9348 30.6833V59.6296H124.598V30.6833H99.9348Z" fill="url(#paint2_linear)"/>
  </g>
  <defs>
    <filter id="filter0_d" x="63" y="12" width="129" height="83" filterUnits="userSpaceOnUse" color-interpolation-filters="sRGB">
      <feFlood flood-opacity="0" result="BackgroundImageFix"/>
      <feColorMatrix in="SourceAlpha" type="matrix" values="0 0 0 0 0 0 0 0 0 0 0 0 0 0 0 0 0 0 127 0"/>
      <feOffset dy="3"/>
      <feGaussianBlur stdDeviation="2.5"/>
      <feColorMatrix type="matrix" values="0 0 0 0 0 0 0 0 0 0 0 0 0 0 0 0 0 0 0.15 0"/>
      <feBlend mode="normal" in2="BackgroundImageFix" result="effect1_dropShadow"/>
      <feBlend mode="normal" in="SourceGraphic" in2="effect1_dropShadow" result="shape"/>
    </filter>
    <linearGradient id="paint0_linear" x1="120.097" y1="28.4396" x2="103.68" y2="61.8741" gradientUnits="userSpaceOnUse">
      <stop offset="0.3" stop-color="#3E863D"/>
      <stop offset="0.5" stop-color="#55934F"/>
      <stop offset="0.8" stop-color="#5AAD45"/>
    </linearGradient>
    <linearGradient id="paint1_linear" x1="97.1007" y1="56.4008" x2="126.958" y2="34.3757" gradientUnits="userSpaceOnUse">
      <stop offset="0.57" stop-color="#3E863D"/>
      <stop offset="0.72" stop-color="#619857"/>
      <stop offset="1" stop-color="#76AC64"/>
    </linearGradient>
    <linearGradient id="paint2_linear" x1="99.9431" y1="45.1573" x2="124.603" y2="45.1573" gradientUnits="userSpaceOnUse">
      <stop offset="0.16" stop-color="#6BBF47"/>
      <stop offset="0.38" stop-color="#79B461"/>
      <stop offset="0.47" stop-color="#75AC64"/>
      <stop offset="0.7" stop-color="#659E5A"/>
      <stop offset="0.9" stop-color="#3E863D"/>
    </linearGradient>
    <clipPath id="clip0">
      <rect width="119" height="73" fill="white" transform="translate(68 14)"/>
    </clipPath>
  </defs>
</svg>
