<svg width="255" height="100" viewBox="0 0 255 100" fill="none" xmlns="http://www.w3.org/2000/svg">
<rect width="255" height="100" rx="5" fill="#7684C0"/>
<g filter="url(#filter0_d)">
<path d="M140.34 41.5368H149.736C152.136 41.5368 154.176 42.3528 155.856 43.9848C157.512 45.6168 158.34 47.6208 158.34 49.9968C158.34 52.3728 157.512 54.3768 155.856 56.0088C154.176 57.6408 152.136 58.4568 149.736 58.4568H145.308V66.7368H140.34V41.5368ZM145.308 53.8128H149.736C150.792 53.8128 151.668 53.4528 152.364 52.7328C153.06 51.9888 153.408 51.0768 153.408 49.9968C153.408 48.8928 153.06 47.9808 152.364 47.2608C151.668 46.5408 150.792 46.1808 149.736 46.1808H145.308V53.8128ZM175.902 51.5448V41.5368H180.834V66.7368H175.902V56.2968H166.542V66.7368H161.574V41.5368H166.542V51.5448H175.902ZM185.516 41.5368H194.912C197.312 41.5368 199.352 42.3528 201.032 43.9848C202.688 45.6168 203.516 47.6208 203.516 49.9968C203.516 52.3728 202.688 54.3768 201.032 56.0088C199.352 57.6408 197.312 58.4568 194.912 58.4568H190.484V66.7368H185.516V41.5368ZM190.484 53.8128H194.912C195.968 53.8128 196.844 53.4528 197.54 52.7328C198.236 51.9888 198.584 51.0768 198.584 49.9968C198.584 48.8928 198.236 47.9808 197.54 47.2608C196.844 46.5408 195.968 46.1808 194.912 46.1808H190.484V53.8128Z" fill="white"/>
</g>
<g filter="url(#filter1_d)">
<g clip-path="url(#clip0)">
<path d="M38.8279 32.4789C38.8279 32.4789 42.9478 28.399 45.8012 26.7081C46.7103 26.1699 53.4719 22.9866 57.8139 33.9424C60.1893 39.9409 60.229 44.4093 54.8296 46.3149C51.5963 47.4564 52.7519 49.5931 52.7519 49.5931" fill="url(#paint0_linear)"/>
<path d="M45.4065 26.2111C42.512 27.9262 38.4712 31.9144 38.3007 32.0829C38.048 32.3337 38.0776 32.715 38.3686 32.9331C38.6588 33.151 39.0998 33.1259 39.3528 32.8748C39.3939 32.8342 43.4491 28.8319 46.1965 27.2045C46.2788 27.1548 48.2831 25.9946 50.7241 26.6928C53.291 27.4273 55.5148 30.0018 57.1531 34.1372C59.7613 40.7216 58.9878 44.1977 54.566 45.757C53.2903 46.2084 52.4505 46.8606 52.0706 47.6996C51.5692 48.8061 52.0973 49.8055 52.1201 49.8482C52.2814 50.1481 52.6911 50.2754 53.0392 50.138C53.3881 50.002 53.5429 49.6462 53.3874 49.344C53.3848 49.3383 53.0865 48.7455 53.3772 48.1244C53.6163 47.6119 54.1937 47.1897 55.0941 46.8728C61.7648 44.5175 60.4038 38.6211 58.4733 33.7467C56.6625 29.1773 54.2035 26.42 51.1638 25.5496C48.1253 24.6801 45.6751 26.0527 45.4065 26.2111" fill="#363254"/>
<path d="M94.2302 34.8413H102.883C103.609 34.8413 104.197 35.2722 104.197 35.802C104.197 36.3322 103.609 36.7622 102.883 36.7622H96.0915L94.2302 34.8413" fill="url(#paint1_linear)"/>
<path d="M102.883 35.4434C103.246 35.4434 103.499 35.6327 103.499 35.8021C103.499 35.9713 103.246 36.1606 102.883 36.1606C102.883 36.1606 97.0094 36.1606 96.4175 36.1606C96.2784 36.018 96.0704 35.8013 95.7233 35.4434C97.7681 35.4434 102.883 35.4434 102.883 35.4434ZM92.7375 34.2394L95.7652 37.3649H102.883C103.993 37.3649 104.895 36.6639 104.895 35.8021C104.895 34.9401 103.993 34.2394 102.883 34.2394H92.7375Z" fill="#363254"/>
<path d="M105.561 32.6082C106.751 32.1011 108.141 32.2252 108.67 32.8849C109.196 33.5464 108.659 34.491 107.469 35.0001C106.282 35.5066 103.169 36.1193 102.641 35.4569C102.113 34.7972 104.373 33.1149 105.561 32.6082Z" fill="#8B9DD7"/>
<path d="M105.869 33.1479C106.792 32.7549 107.805 32.8657 108.094 33.2273C108.174 33.3286 108.193 33.4449 108.151 33.584C108.077 33.8351 107.776 34.197 107.159 34.4611C106.012 34.95 103.974 35.2368 103.345 35.0983C103.577 34.6316 104.852 33.5826 105.869 33.1479V33.1479ZM105.252 32.0689C104.257 32.4922 102.234 33.842 101.914 34.909L102.067 35.7987C103.023 36.9999 106.879 35.9237 107.778 35.5396C108.673 35.1572 109.302 34.5546 109.502 33.8862C109.646 33.4097 109.554 32.9332 109.243 32.5439C108.515 31.6331 106.763 31.4247 105.252 32.0689Z" fill="#363254"/>
<path d="M107.674 36.506C108.95 36.8869 109.66 37.7692 109.266 38.4774C108.869 39.1865 107.516 39.4497 106.242 39.0676C104.969 38.6875 102.41 37.2543 102.805 36.547C103.201 35.8364 106.402 36.125 107.674 36.506" fill="#8B9DD7"/>
<path d="M107.904 35.9378H107.902H107.904ZM107.446 37.0746H107.446C108.131 37.2804 108.507 37.6224 108.628 37.8746C108.721 38.0674 108.658 38.1805 108.637 38.2174C108.427 38.5932 107.455 38.7935 106.47 38.4988C105.346 38.1632 103.833 37.2175 103.549 36.7822C104.076 36.6241 106.215 36.7061 107.446 37.0746H107.446ZM102.176 36.2859L102.177 37.1594C102.668 38.1805 104.935 39.315 106.014 39.6374C107.636 40.1236 109.341 39.7291 109.895 38.7407C110.012 38.5274 110.071 38.2985 110.071 38.0665C110.071 37.8478 110.019 37.6267 109.916 37.4102C109.603 36.7623 108.869 36.2264 107.902 35.9378C106.938 35.6483 102.905 34.9794 102.176 36.2859" fill="#363254"/>
<path d="M107.861 34.3234C109.753 34.3124 111.295 34.9225 111.302 35.6876C111.311 36.4524 109.786 37.0809 107.892 37.0919C106.003 37.1035 101.72 36.511 101.711 35.7468C101.703 34.9808 105.971 34.3361 107.861 34.3234" fill="#8B9DD7"/>
<path d="M110.604 35.6932C110.604 35.7223 110.574 35.7792 110.489 35.8537C110.147 36.1547 109.186 36.4819 107.888 36.4894C106.265 36.4992 103.698 36.1053 102.71 35.7397C103.691 35.3604 106.245 34.9353 107.866 34.9255H107.865C109.658 34.9148 110.602 35.4909 110.604 35.6932H110.604ZM107.856 33.7206H107.855C106.481 33.7296 102.398 34.1628 101.35 35.0811L101.014 35.7526C101.033 37.5229 107.829 37.6943 107.897 37.6943C109.42 37.6848 110.795 37.3036 111.485 36.6984C111.827 36.3985 112.004 36.0476 112 35.6814C111.989 34.5324 110.246 33.7073 107.856 33.7206" fill="#363254"/>
<path d="M64.0998 53.9469V69.4106C64.0998 73.2235 59.8709 74.5901 54.6554 74.5901C49.439 74.5901 45.2122 73.2235 45.2122 69.4106V53.7645" fill="url(#paint2_linear)"/>
<path d="M44.5144 53.7645V69.4106C44.5144 73.1396 48.1149 75.1924 54.6553 75.1924C61.1956 75.1924 64.7975 73.1396 64.7975 69.4106V53.9469C64.7975 53.6141 64.4849 53.3443 64.0998 53.3443C63.7143 53.3443 63.4021 53.6141 63.4021 53.9469V69.4106C63.4021 73.1941 58.6463 73.9878 54.6553 73.9878C50.6659 73.9878 45.9101 73.1941 45.9101 69.4106V53.7645C45.9101 53.4323 45.5973 53.1625 45.2121 53.1625C44.827 53.1625 44.5144 53.4323 44.5144 53.7645" fill="#363254"/>
<path d="M49.351 69.3921C49.351 70.9347 48.3516 72.1887 47.1181 72.1887C45.8845 72.1887 44.8848 70.9347 44.8848 69.3921C44.8848 67.8467 45.8845 64.3575 47.1181 64.3575C48.3516 64.3575 49.351 67.8467 49.351 69.3921" fill="#8B9DD7"/>
<path d="M45.1176 69.3922C45.1176 67.7117 46.1768 64.5581 47.118 64.5581C48.0589 64.5581 49.1185 67.7117 49.1185 69.3922C49.1185 70.8242 48.2216 71.9884 47.118 71.9884C46.0152 71.9884 45.1176 70.8242 45.1176 69.3922ZM44.6519 69.3922C44.6519 71.045 45.7578 72.3901 47.118 72.3901C48.4777 72.3901 49.5832 71.045 49.5832 69.3922C49.5832 67.8825 48.6011 64.1561 47.118 64.1561C45.6353 64.1561 44.6519 67.8825 44.6519 69.3922Z" fill="#363254"/>
<path d="M45.4863 69.6709C45.4863 68.1849 46.695 65.5096 47.5773 65.5096C47.6618 65.5096 47.7446 65.5474 47.8243 65.6048C47.6038 65.1338 47.3512 64.8221 47.0836 64.8221C46.2006 64.8221 45.4863 68.1855 45.4863 69.6709Z" fill="#A6BDE6"/>
<path d="M50.4042 70.8778C50.4042 72.0697 49.6096 73.0362 48.6287 73.0362C47.6468 73.0362 46.8511 72.0697 46.8511 70.8778C46.8511 69.6824 47.6468 66.9904 48.6287 66.9904C49.6096 66.9904 50.4042 69.6824 50.4042 70.8778Z" fill="#8B9DD7"/>
<path d="M47.0837 70.8778C47.0837 69.6285 47.9183 67.1916 48.6288 67.1916C49.3395 67.1916 50.1715 69.6285 50.1715 70.8778C50.1715 71.9569 49.4791 72.8354 48.6288 72.8354C47.7764 72.8354 47.0837 71.9569 47.0837 70.8778ZM46.6187 70.8778C46.6187 72.1783 47.5205 73.2371 48.6288 73.2371C49.7355 73.2371 50.637 72.1783 50.637 70.8778C50.637 69.8602 49.9244 66.7896 48.6288 66.7896C47.3312 66.7896 46.6187 69.8602 46.6187 70.8778Z" fill="#363254"/>
<path d="M47.598 70.1679C47.5087 69.3185 48.3415 67.9087 48.9903 67.8057C49.051 67.7985 49.1135 67.8114 49.1756 67.8348C48.9855 67.5907 48.7703 67.3961 48.5859 67.4723C47.9437 67.7468 47.5087 69.3214 47.598 70.1679" fill="#A6BDE6"/>
<path d="M92.9925 54.1357V69.5991C92.9925 73.4127 88.7639 74.7786 83.5482 74.7786C78.3321 74.7786 74.1035 73.4127 74.1035 69.5991V53.9533" fill="url(#paint3_linear)"/>
<path d="M73.4055 53.9532V69.599C73.4055 73.3271 77.0077 75.3808 83.5482 75.3808C86.492 75.3808 88.8526 74.9649 90.5652 74.1453C92.6093 73.1664 93.6903 71.5947 93.6903 69.599V54.1356C93.6903 53.8031 93.3777 53.5336 92.9926 53.5336C92.6074 53.5336 92.2955 53.8031 92.2955 54.1356V69.599C92.2955 71.1745 91.5074 72.3167 89.8875 73.0928C88.4056 73.8013 86.214 74.1762 83.5482 74.1762C79.558 74.1762 74.8019 73.3814 74.8019 69.599V53.9532C74.8019 53.6201 74.4887 53.3506 74.1036 53.3506C73.7184 53.3506 73.4055 53.6201 73.4055 53.9532" fill="#363254"/>
<path d="M78.2435 69.5803C78.2435 71.1229 77.2444 72.3788 76.0112 72.3788C74.7758 72.3788 73.7771 71.1229 73.7771 69.5803C73.7771 68.0357 74.7758 64.5463 76.0112 64.5463C77.2444 64.5463 78.2435 68.0357 78.2435 69.5803Z" fill="#7483CA"/>
<path d="M74.0091 69.5803C74.0091 68.7916 74.2739 67.544 74.6523 66.5471C75.0733 65.4369 75.5942 64.7468 76.0113 64.7468C76.9516 64.7468 78.0113 67.9001 78.0113 69.5803C78.0113 71.0129 77.1142 72.1777 76.0113 72.1777C74.9071 72.1777 74.0091 71.0129 74.0091 69.5803ZM74.2101 66.4222C73.8178 67.4545 73.5439 68.7538 73.5439 69.5803C73.5439 71.2337 74.6507 72.5794 76.0113 72.5794C77.3706 72.5794 78.4761 71.2337 78.4761 69.5803C78.4761 68.0706 77.4939 64.3457 76.0113 64.3457C75.1733 64.3457 74.5694 65.4741 74.2101 66.4222" fill="#363254"/>
<path d="M74.3799 69.8611C74.3799 68.3745 75.5876 65.6975 76.4698 65.6975C76.5547 65.6975 76.6373 65.7364 76.7173 65.793C76.496 65.3229 76.244 65.0106 75.9766 65.0106C75.0931 65.0106 74.3799 68.3745 74.3799 69.8611" fill="#839AD6"/>
<path d="M79.2974 71.0657C79.2974 72.2593 78.5032 73.2235 77.5213 73.2235C76.5403 73.2235 75.7449 72.2593 75.7449 71.0657C75.7449 69.8706 76.5403 67.1788 77.5213 67.1788C78.5032 67.1788 79.2974 69.8706 79.2974 71.0657Z" fill="#7483CA"/>
<path d="M75.9778 71.0657C75.9778 69.8164 76.8107 67.38 77.5214 67.38C78.231 67.38 79.0646 69.8164 79.0646 71.0657C79.0646 72.1451 78.372 73.0238 77.5214 73.0238C76.6698 73.0238 75.9778 72.1451 75.9778 71.0657ZM75.5127 71.0657C75.5127 72.3676 76.4136 73.425 77.5214 73.425C78.6291 73.425 79.53 72.3676 79.53 71.0657C79.53 70.0484 78.8172 66.9783 77.5214 66.9783C76.2246 66.9783 75.5127 70.0484 75.5127 71.0657Z" fill="#363254"/>
<path d="M76.4914 70.3563C76.4008 69.5078 77.234 68.0983 77.883 67.9947C77.9443 67.9872 78.0069 67.9996 78.0682 68.0233C77.8782 67.7791 77.663 67.5843 77.4785 67.6608C76.8359 67.9352 76.4008 69.5095 76.4914 70.3563Z" fill="#839AD6"/>
<path d="M56.1543 32.8272C59.8326 38.1778 59.4406 42.6978 54.5396 45.0672C51.6053 46.4865 53.2207 48.3584 53.2207 48.3584" fill="url(#paint4_linear)"/>
<path d="M55.7985 32.3089C55.4665 32.4789 55.3565 32.8486 55.5539 33.1346C57.6015 36.1115 58.3342 38.8076 57.6741 40.9297C57.2047 42.4382 56.0341 43.6534 54.1991 44.542C53.0391 45.1025 52.3472 45.8096 52.1414 46.6425C51.8615 47.7744 52.6287 48.6803 52.6616 48.7181C52.8904 48.9833 53.3222 49.037 53.6318 48.8422C53.9407 48.6471 54.0082 48.271 53.7843 48.0026C53.7809 47.9974 53.3556 47.4765 53.509 46.8826C53.6318 46.4076 54.0935 45.9738 54.8805 45.5928C57.0577 44.5394 58.4516 43.0765 59.0224 41.2416C59.7819 38.7986 58.9986 35.7825 56.7541 32.5196C56.5578 32.2333 56.1288 32.1395 55.7985 32.3089" fill="#080604"/>
<path d="M77.6413 29.0339C77.6413 29.0339 71.5343 28.9696 49.2211 29.631C26.9092 30.2922 27.7326 37.4503 27.698 47.7302V72.4562C27.698 74.5476 29.7235 75.3912 32.2229 75.3912C34.7218 75.3912 36.7504 74.5476 36.7504 72.4562C36.7504 72.4562 37.3266 65.391 37.8241 61.0932C38.9369 45.4797 60.0036 63.6606 75.3178 62.8121C89.234 62.0404 100.193 57.7429 100.193 47.5296C100.193 37.3141 93.011 29.0339 77.6413 29.0339" fill="url(#paint5_linear)"/>
<path d="M28.3956 72.4562V47.7302C28.3956 47.7325 28.3974 46.6407 28.3974 46.6407C28.4012 37.132 28.4042 30.85 49.2445 30.2324C71.2685 29.5802 77.5713 29.635 77.6329 29.6353H77.6413C84.6582 29.6353 90.3762 31.4448 94.1767 34.8676C97.6564 38.0001 99.4953 42.3784 99.4953 47.5296C99.4953 58.5535 86.323 61.5982 75.2732 62.2112C69.4576 62.5327 62.5977 59.9602 56.5453 57.6898C49.7609 55.1455 43.9019 52.9484 40.2946 54.8557C38.3893 55.8629 37.3536 57.8912 37.1281 61.0563C36.6378 65.29 36.0597 72.3422 36.0543 72.4141C36.0526 74.4856 33.6531 74.7892 32.2228 74.7892C30.7939 74.7892 28.3956 74.4856 28.3956 72.4562H28.3956ZM49.1975 29.0296C27.0088 29.6867 27.005 36.7978 27.0018 46.6399L27 47.7285V72.4562C27 74.671 28.9527 75.9947 32.2228 75.9947C35.4958 75.9947 37.4482 74.671 37.4482 72.4562C37.4523 72.4271 38.0276 65.3919 38.5187 61.1526C38.7164 58.3859 39.5354 56.6701 41.0234 55.8825C44.0126 54.303 49.8284 56.4846 55.989 58.7948C62.1864 61.1192 69.2101 63.7541 75.3626 63.413C91.8248 62.4995 100.891 56.8589 100.891 47.5296C100.891 42.0624 98.9173 37.396 95.1845 34.0339C91.1145 30.3689 85.0479 28.4313 77.6413 28.4313H77.6497C77.5887 28.4306 71.2704 28.3739 49.1975 29.0296" fill="#363254"/>
<path d="M28.3067 48.4081C28.3305 50.7302 27.9655 71.0123 29.3973 72.2302C28.9475 71.3321 29.9316 51.6828 29.919 50.4479L29.9057 49.7253C29.9057 49.3813 29.9057 49.0422 29.9057 48.7045C29.3538 48.5221 28.8182 48.2979 28.301 48.0413L28.3067 48.4081Z" fill="url(#paint6_linear)"/>
<path d="M77.6329 29.7141C77.6329 29.7141 71.6585 29.6512 49.8268 30.2983C27.9961 30.9453 28.3311 38.1418 28.3311 47.8168L28.3356 48.1746C28.8409 48.4312 29.3646 48.6555 29.902 48.8381C29.9071 39.6818 30.3423 32.9635 51.3986 32.3395C73.2294 31.6925 79.2057 31.7554 79.2057 31.7554C87.5546 31.7554 93.3022 34.2772 96.8809 38.2116C93.5861 33.1202 87.3481 29.7141 77.6329 29.7141" fill="url(#paint7_linear)"/>
<path d="M70.029 61.0412V72.0536C70.029 75.8666 65.7991 77.236 60.5834 77.236C55.3675 77.236 51.1399 75.8666 51.1399 72.0536V55.292" fill="url(#paint8_linear)"/>
<path d="M50.4421 55.292V72.0535C50.4421 75.7836 54.0446 77.8375 60.5834 77.8375C67.1243 77.8375 70.7271 75.7836 70.7271 72.0535V61.0411C70.7271 60.7087 70.4139 60.4388 70.0291 60.4388C69.6442 60.4388 69.3313 60.7087 69.3313 61.0411V72.0535C69.3313 75.839 64.5747 76.6333 60.5834 76.6333C56.5942 76.6333 51.8378 75.839 51.8378 72.0535V55.292C51.8378 54.9595 51.5251 54.6899 51.1399 54.6899C50.7546 54.6899 50.4421 54.9595 50.4421 55.292" fill="#363254"/>
<path d="M57.0808 73.1217C57.0808 74.5561 55.7473 75.7194 54.1007 75.7194C52.4542 75.7194 51.1201 74.5561 51.1201 73.1217C51.1201 71.6856 52.4542 68.4441 54.1007 68.4441C55.7473 68.4441 57.0808 71.6856 57.0808 73.1217Z" fill="#8B9DD7"/>
<path d="M51.3531 73.1217C51.3531 71.7234 52.6817 68.6441 54.1009 68.6441C55.5202 68.6441 56.8488 71.7234 56.8488 73.1217C56.8488 74.444 55.617 75.5188 54.1009 75.5188C52.5866 75.5188 51.3531 74.444 51.3531 73.1217ZM50.8875 73.1217C50.8875 74.6645 52.329 75.9203 54.1009 75.9203C55.873 75.9203 57.3143 74.6645 57.3143 73.1217C57.3143 71.6669 55.9582 68.2421 54.1009 68.2421C52.2452 68.2421 50.8875 71.6669 50.8875 73.1217Z" fill="#363254"/>
<path d="M51.6292 73.2935C51.6292 72.0089 53.2978 69.7013 54.5187 69.7013C54.635 69.7013 54.7479 69.7342 54.8607 69.7844C54.5531 69.3786 54.2059 69.1085 53.8373 69.1085C52.6159 69.1085 51.6292 72.0107 51.6292 73.2935Z" fill="#A6BDE6"/>
<path d="M59.5089 73.3248C59.5089 75.2167 58.1277 76.7561 56.4236 76.7561C54.717 76.7561 53.3357 75.2167 53.3357 73.3248C53.3357 71.4305 54.717 67.1526 56.4236 67.1526C58.1277 67.1526 59.5089 71.4305 59.5089 73.3248Z" fill="#8B9DD7"/>
<path d="M53.5681 73.3248C53.5681 71.459 54.9494 67.3528 56.4236 67.3528C57.8975 67.3528 59.2767 71.459 59.2767 73.3248C59.2767 75.1055 57.9971 76.5548 56.4236 76.5548C54.8497 76.5548 53.5681 75.1055 53.5681 73.3248ZM53.103 73.3248C53.103 75.3271 54.5929 76.9568 56.4236 76.9568C58.2536 76.9568 59.7419 75.3271 59.7419 73.3248C59.7419 71.4232 58.3406 66.9523 56.4236 66.9523C54.506 66.9523 53.103 71.4232 53.103 73.3248" fill="#363254"/>
<path d="M54.168 73.668C54.168 71.8438 55.8383 68.5653 57.0578 68.5653C57.1739 68.5653 57.2885 68.6127 57.3995 68.6825C57.0941 68.1036 56.7448 67.722 56.3763 67.722C55.1548 67.722 54.168 71.8464 54.168 73.668" fill="#A6BDE6"/>
<path d="M61.1286 74.3437C61.1286 75.683 60.1344 76.7685 58.9075 76.7685C57.6811 76.7685 56.6868 75.683 56.6868 74.3437C56.6868 72.9979 57.6811 69.9711 58.9075 69.9711C60.1344 69.9711 61.1286 72.9979 61.1286 74.3437Z" fill="#8B9DD7"/>
<path d="M56.9194 74.3437C56.9194 72.8931 57.974 70.1717 58.9075 70.1717C59.8435 70.1717 60.896 72.8931 60.896 74.3437C60.896 75.5708 60.0047 76.5673 58.9075 76.5673C57.8116 76.5673 56.9194 75.5708 56.9194 74.3437ZM56.4541 74.3437C56.4541 75.7915 57.5556 76.9693 58.9075 76.9693C60.2618 76.9693 61.3608 75.7915 61.3608 74.3437C61.3608 73.025 60.3834 69.7705 58.9075 69.7705C57.4323 69.7705 56.4541 73.025 56.4541 74.3437" fill="#363254"/>
<path d="M57.6209 73.5439C57.5084 72.5875 58.5494 71.002 59.3603 70.8874C59.4367 70.8764 59.5145 70.8926 59.5929 70.9188C59.3548 70.6432 59.0858 70.4248 58.8553 70.5116C58.0516 70.8204 57.5084 72.5907 57.6209 73.5439" fill="#A6BDE6"/>
<path d="M98.9314 53.4736V71.623C98.9314 75.4357 94.7018 76.8042 89.4861 76.8042C84.2697 76.8042 80.0427 75.4357 80.0427 71.623V61.195" fill="url(#paint9_linear)"/>
<path d="M98.2327 53.4736V71.623C98.2327 75.408 93.476 76.2018 89.4861 76.2018C85.4971 76.2018 80.7408 75.408 80.7408 71.623V61.195C80.7408 60.8625 80.4282 60.5924 80.0427 60.5924C79.6575 60.5924 79.345 60.8625 79.345 61.195V71.623C79.345 75.3525 82.9465 77.4071 89.4861 77.4071C96.0263 77.4071 99.6284 75.3525 99.6284 71.623V53.4736C99.6284 53.1408 99.3165 52.8718 98.9314 52.8718C98.5456 52.8718 98.2327 53.1408 98.2327 53.4736" fill="#363254"/>
<path d="M85.9841 72.6908C85.9841 74.1242 84.6499 75.2873 83.0035 75.2873C81.357 75.2873 80.0232 74.1242 80.0232 72.6908C80.0232 71.2547 81.357 68.0126 83.0035 68.0126C84.6499 68.0126 85.9841 71.2547 85.9841 72.6908Z" fill="#8B9DD7"/>
<path d="M80.256 72.6908C80.256 71.2919 81.584 68.214 83.0034 68.214C84.4233 68.214 85.7517 71.2919 85.7517 72.6908C85.7517 74.012 84.5185 75.0876 83.0034 75.0876C81.4886 75.0876 80.256 74.012 80.256 72.6908V72.6908ZM79.7905 72.6908C79.7905 74.2336 81.2315 75.489 83.0034 75.489C84.7753 75.489 86.2165 74.2336 86.2165 72.6908C86.2165 71.2357 84.8601 67.812 83.0034 67.812C81.1473 67.812 79.7905 71.2357 79.7905 72.6908Z" fill="#363254"/>
<path d="M80.5317 72.8617C80.5317 71.5777 82.2001 69.2704 83.4213 69.2704C83.5378 69.2704 83.6504 69.303 83.7633 69.3526C83.4562 68.9468 83.1091 68.677 82.7401 68.677C81.5188 68.677 80.5317 71.5794 80.5317 72.8617" fill="#A6BDE6"/>
<path d="M88.4124 72.8932C88.4124 74.7861 87.0314 76.3251 85.326 76.3251C83.6192 76.3251 82.2383 74.7861 82.2383 72.8932C82.2383 70.9988 83.6192 66.722 85.326 66.722C87.0314 66.722 88.4124 70.9988 88.4124 72.8932Z" fill="#8B9DD7"/>
<path d="M82.4708 72.8932C82.4708 71.0274 83.8511 66.9224 85.3259 66.9224C86.8004 66.9224 88.1794 71.0274 88.1794 72.8932C88.1794 74.6744 86.8991 76.1244 85.3259 76.1244C83.7511 76.1244 82.4708 74.6744 82.4708 72.8932ZM82.0056 72.8932C82.0056 74.8961 83.4949 76.5253 85.3259 76.5253C87.1558 76.5253 88.6445 74.8961 88.6445 72.8932C88.6445 70.9925 87.2436 66.5204 85.3259 66.5204C83.4072 66.5204 82.0056 70.9925 82.0056 72.8932Z" fill="#363254"/>
<path d="M83.0708 73.2372C83.0708 71.4132 84.7411 68.1347 85.9601 68.1347C86.0769 68.1347 86.1911 68.1818 86.3023 68.2513C85.9972 67.6724 85.6482 67.2917 85.2788 67.2917C84.0576 67.2917 83.0708 71.4147 83.0708 73.2372Z" fill="#A6BDE6"/>
<path d="M90.031 73.9122C90.031 75.2521 89.0372 76.3376 87.8108 76.3376C86.5843 76.3376 85.5898 75.2521 85.5898 73.9122C85.5898 72.567 86.5843 69.5393 87.8108 69.5393C89.0372 69.5393 90.031 72.567 90.031 73.9122Z" fill="#8B9DD7"/>
<path d="M85.8221 73.9121C85.8221 72.4619 86.8756 69.741 87.8108 69.741C88.7456 69.741 89.7991 72.4619 89.7991 73.9121C89.7991 75.139 88.9062 76.1367 87.8108 76.1367C86.7147 76.1367 85.8221 75.139 85.8221 73.9121ZM85.3569 73.9121C85.3569 75.3606 86.4572 76.5378 87.8108 76.5378C89.1636 76.5378 90.2636 75.3606 90.2636 73.9121C90.2636 72.5941 89.2862 69.339 87.8108 69.339C86.3347 69.339 85.3569 72.5941 85.3569 73.9121" fill="#363254"/>
<path d="M86.524 73.1131C86.4117 72.1564 87.4523 70.5714 88.2633 70.4565C88.3394 70.4458 88.4175 70.4608 88.4959 70.488C88.2572 70.2118 87.9888 69.9948 87.7581 70.0799C86.9543 70.3887 86.4117 72.1595 86.524 73.1131" fill="#A6BDE6"/>
<path d="M33.615 37.6465C33.3685 37.9461 33.4555 38.3579 33.8107 38.5674C34.1645 38.7767 34.6523 38.7019 34.8985 38.4032C36.3018 36.6973 39.4581 36.2272 40.9587 36.7118C41.2577 36.8087 41.6356 36.7666 41.8008 36.6156C41.9659 36.4667 41.8579 36.2664 41.5582 36.1698C39.5036 35.5054 35.4729 35.3851 33.615 37.6465" fill="#363254"/>
<path d="M39.6972 45.1452C38.4012 45.3897 37.2586 44.7409 37.1462 43.6967C37.0342 42.6509 37.9949 41.6058 39.2912 41.3591C40.5886 41.1138 41.7308 41.7608 41.8441 42.8073C41.9554 43.8529 40.995 44.8976 39.6972 45.1452V45.1452ZM42.3771 42.6679C42.2472 41.4494 40.8978 40.6996 39.36 40.9891C37.8241 41.28 36.6832 42.5002 36.8122 43.7169C36.9415 44.9331 38.2914 45.6849 39.8274 45.3966C41.365 45.1048 42.5064 43.8849 42.3771 42.6679" fill="#363254"/>
<path d="M41.762 42.8915C41.8604 43.8107 41.0201 44.7313 39.8853 44.946C38.7458 45.1631 37.7467 44.5911 37.6452 43.6719C37.5475 42.7527 38.388 41.8329 39.5233 41.6179C40.6616 41.4015 41.6635 41.9714 41.762 42.8915Z" fill="#FCFCFC"/>
<path d="M41.5958 42.9008C41.2884 42.2004 40.4723 41.7943 39.7802 41.9894C39.4092 42.0922 39.1551 42.3487 39.0366 42.6694L40.0041 43.0977L39.1152 43.6717C39.4446 44.3323 40.2237 44.7115 40.8961 44.523C41.591 44.3256 41.9029 43.601 41.5958 42.9008Z" fill="#363254"/>
<path d="M40.8833 42.6007C41.0555 42.5785 41.2583 42.7649 41.332 43.0238C41.4063 43.2795 41.3263 43.5069 41.1503 43.5311C40.9762 43.5545 40.7738 43.3666 40.6992 43.1086C40.6268 42.8532 40.7085 42.6264 40.8833 42.6007Z" fill="white"/>
<path d="M38.0689 41.5449C36.8558 42.3825 36.4724 43.5989 37.2919 44.2884C37.2209 44.2612 37.3756 44.4384 37.3101 44.4055C36.0196 43.7654 35.8041 41.8647 36.992 40.7464C38.0118 39.7854 41.072 39.0728 41.0493 39.4434C40.923 39.8685 40.0271 40.4082 38.9148 40.9946C38.5567 41.1767 38.2985 41.3868 38.0689 41.5449" fill="#363254"/>
<path d="M45.4473 30.9032C45.4473 30.9032 50.9803 27.4997 54.4751 26.3332C55.5889 25.9612 63.6256 24.0616 64.9285 36.4772C65.6408 43.2751 64.3582 47.9703 58.1277 48.8208C54.3991 49.3305 54.9764 51.8168 54.9764 51.8168" fill="url(#paint10_linear)"/>
<path d="M54.2225 25.7715C50.6871 26.9522 45.2714 30.2717 45.0419 30.4128C44.7287 30.6056 44.6553 30.9819 44.8793 31.2523C45.1026 31.523 45.539 31.5859 45.8525 31.3929C45.9071 31.3603 51.3547 28.0206 54.7256 26.8945C54.831 26.8598 57.3119 26.0564 59.6931 27.3323C62.1721 28.6613 63.7418 31.8416 64.2347 36.5317C65.0195 44.0272 63.1605 47.5238 58.0189 48.2266C56.5613 48.4251 55.5004 48.9255 54.8642 49.7154C54.0289 50.7495 54.2806 51.8874 54.2925 51.9356C54.3682 52.2591 54.7313 52.4678 55.1074 52.4058C55.4839 52.344 55.731 52.0286 55.6619 51.7033C55.6602 51.6975 55.5214 50.9968 56.0198 50.3908C56.4327 49.8889 57.1784 49.5605 58.2369 49.4153C65.8811 48.3717 66.2008 41.9236 65.625 36.4229C65.0834 31.2688 63.3344 27.8659 60.4299 26.3095C57.5139 24.7467 54.5515 25.6619 54.2225 25.7715" fill="#363254"/>
<path d="M51.1074 30.0027C57.3722 26.4977 60.85 28.2899 60.85 28.2899C58.1261 26.0616 55.0619 26.8002 54.3842 27.0276C50.9014 28.1941 44.1752 32.5052 44.1752 32.5052C44.1752 32.5052 43.2657 33.9485 45.0781 33.6353C45.0781 33.6353 49.0203 31.1713 51.1074 30.0027" fill="url(#paint11_linear)"/>
<path d="M48.8467 46.5426C48.7923 49.3882 47.7393 51.9796 46.0968 53.3013C45.3516 53.9019 44.5203 54.1992 43.6907 54.1628C43.4348 54.1504 43.2167 54.3204 43.202 54.5417C43.1897 54.764 43.3865 54.9521 43.6433 54.9637C44.7302 55.0127 45.7976 54.641 46.732 53.8886C48.5524 52.4226 49.719 49.6128 49.7769 46.5545C49.782 46.334 49.5776 46.1507 49.3203 46.1473C49.063 46.1441 48.8514 46.321 48.8467 46.5426" fill="#363254"/>
<path d="M50.8619 44.5106C50.5115 45.2295 49.8991 45.6875 49.1803 45.7639C48.4796 45.8378 47.7677 45.5446 47.2753 44.9787C47.1219 44.8017 46.8292 44.7654 46.6239 44.8987C46.4187 45.0315 46.3767 45.2831 46.5313 45.46C47.2262 46.2597 48.2596 46.671 49.2945 46.5613C50.3533 46.447 51.2364 45.813 51.7201 44.8211C51.8193 44.6165 51.707 44.383 51.4711 44.2961C51.2337 44.2104 50.9622 44.3065 50.8619 44.5106" fill="#363254"/>
</g>
</g>
<defs>
<filter id="filter0_d" x="135.34" y="39.5369" width="73.1758" height="35.2" filterUnits="userSpaceOnUse" color-interpolation-filters="sRGB">
<feFlood flood-opacity="0" result="BackgroundImageFix"/>
<feColorMatrix in="SourceAlpha" type="matrix" values="0 0 0 0 0 0 0 0 0 0 0 0 0 0 0 0 0 0 127 0"/>
<feOffset dy="3"/>
<feGaussianBlur stdDeviation="2.5"/>
<feColorMatrix type="matrix" values="0 0 0 0 0 0 0 0 0 0 0 0 0 0 0 0 0 0 0.25 0"/>
<feBlend mode="normal" in2="BackgroundImageFix" result="effect1_dropShadow"/>
<feBlend mode="normal" in="SourceGraphic" in2="effect1_dropShadow" result="shape"/>
</filter>
<filter id="filter1_d" x="22" y="23.2632" width="95" height="62.5745" filterUnits="userSpaceOnUse" color-interpolation-filters="sRGB">
<feFlood flood-opacity="0" result="BackgroundImageFix"/>
<feColorMatrix in="SourceAlpha" type="matrix" values="0 0 0 0 0 0 0 0 0 0 0 0 0 0 0 0 0 0 127 0"/>
<feOffset dy="3"/>
<feGaussianBlur stdDeviation="2.5"/>
<feColorMatrix type="matrix" values="0 0 0 0 0 0 0 0 0 0 0 0 0 0 0 0 0 0 0.25 0"/>
<feBlend mode="normal" in2="BackgroundImageFix" result="effect1_dropShadow"/>
<feBlend mode="normal" in="SourceGraphic" in2="effect1_dropShadow" result="shape"/>
</filter>
<linearGradient id="paint0_linear" x1="61.2674" y1="43.9401" x2="87.0618" y2="65.4263" gradientUnits="userSpaceOnUse">
<stop stop-color="#8C9BD6"/>
<stop offset="1" stop-color="#505E9B"/>
</linearGradient>
<linearGradient id="paint1_linear" x1="79.6392" y1="22.3984" x2="105.648" y2="44.0633" gradientUnits="userSpaceOnUse">
<stop stop-color="#808FD0"/>
<stop offset="1" stop-color="#505E9B"/>
</linearGradient>
<linearGradient id="paint2_linear" x1="48.5568" y1="58.7411" x2="74.2381" y2="80.1331" gradientUnits="userSpaceOnUse">
<stop stop-color="#8C9BD6"/>
<stop offset="1" stop-color="#505E9B"/>
</linearGradient>
<linearGradient id="paint3_linear" x1="59.08" y1="46.6826" x2="84.761" y2="68.0745" gradientUnits="userSpaceOnUse">
<stop stop-color="#8C9BD6"/>
<stop offset="1" stop-color="#505E9B"/>
</linearGradient>
<linearGradient id="paint4_linear" x1="60.528" y1="44.4871" x2="85.4566" y2="65.2522" gradientUnits="userSpaceOnUse">
<stop stop-color="#808FD0"/>
<stop offset="1" stop-color="#505E9B"/>
</linearGradient>
<linearGradient id="paint5_linear" x1="55.8585" y1="50.4791" x2="81.7833" y2="72.074" gradientUnits="userSpaceOnUse">
<stop stop-color="#8C9BD6"/>
<stop offset="1" stop-color="#505E9B"/>
</linearGradient>
<linearGradient id="paint6_linear" x1="17.1885" y1="44.2237" x2="33.1722" y2="70.2616" gradientUnits="userSpaceOnUse">
<stop stop-color="#FAFAFD"/>
<stop offset="1" stop-color="#8892D2"/>
</linearGradient>
<linearGradient id="paint7_linear" x1="47.9662" y1="24.0585" x2="66.5909" y2="54.3985" gradientUnits="userSpaceOnUse">
<stop stop-color="#FAFAFD"/>
<stop offset="1" stop-color="#8892D2"/>
</linearGradient>
<linearGradient id="paint8_linear" x1="48.1132" y1="59.3618" x2="73.7812" y2="80.7427" gradientUnits="userSpaceOnUse">
<stop stop-color="#8C9BD6"/>
<stop offset="1" stop-color="#505E9B"/>
</linearGradient>
<linearGradient id="paint9_linear" x1="60.7602" y1="44.5241" x2="86.5174" y2="65.9793" gradientUnits="userSpaceOnUse">
<stop stop-color="#8C9BD6"/>
<stop offset="1" stop-color="#505E9B"/>
</linearGradient>
<linearGradient id="paint10_linear" x1="62.4347" y1="42.5779" x2="88.1523" y2="64.0001" gradientUnits="userSpaceOnUse">
<stop stop-color="#8C9BD6"/>
<stop offset="1" stop-color="#505E9B"/>
</linearGradient>
<linearGradient id="paint11_linear" x1="47.4385" y1="24.3586" x2="66.473" y2="55.3665" gradientUnits="userSpaceOnUse">
<stop stop-color="#FAFAFD"/>
<stop offset="1" stop-color="#8892D2"/>
</linearGradient>
<clipPath id="clip0">
<rect x="27" y="25.2632" width="85" height="52.5745" rx="5" fill="white"/>
</clipPath>
</defs>
</svg>
