<svg width="255" height="100" viewBox="0 0 255 100" fill="none" xmlns="http://www.w3.org/2000/svg">
  <rect width="255" height="100" rx="5" fill="#CF649A"/>
  <g clip-path="url(#clip0)" filter="url(#filter0_d)">
    <path d="M161.612 55.512C158.256 55.5312 155.35 56.3599 152.912 57.5932C152.012 55.7625 151.112 54.163 150.962 52.9682C150.794 51.5807 150.587 50.7328 150.794 49.0755C151 47.4182 151.937 45.0672 151.937 44.8745C151.919 44.701 151.731 43.8531 149.8 43.8338C147.869 43.8146 146.2 44.2193 146.012 44.7396C145.825 45.2599 145.45 46.4547 145.206 47.688C144.869 49.4995 141.344 55.9167 139.337 59.2891C138.681 57.9786 138.119 56.8224 138.006 55.8974C137.837 54.5099 137.631 53.662 137.837 52.0047C138.044 50.3474 138.981 47.9963 138.981 47.8036C138.962 47.6302 138.775 46.7823 136.844 46.763C134.912 46.7437 133.244 47.1484 133.056 47.6687C132.869 48.1891 132.662 49.4224 132.25 50.6172C131.856 51.812 127.169 62.5266 125.95 65.3208C125.331 66.7469 124.787 67.8838 124.394 68.6547C124 69.4255 124.375 68.7125 124.337 68.7896C124 69.4448 123.812 69.8109 123.812 69.8109V69.8302C123.55 70.312 123.269 70.7745 123.137 70.7745C123.044 70.7745 122.856 69.4833 123.175 67.7104C123.869 63.9911 125.556 58.1906 125.537 57.9786C125.537 57.8823 125.856 56.8609 124.45 56.3406C123.081 55.8203 122.594 56.6875 122.481 56.6875C122.369 56.6875 122.275 56.9958 122.275 56.9958C122.275 56.9958 123.794 50.463 119.369 50.463C116.594 50.463 112.769 53.5656 110.875 56.3984C109.675 57.0729 107.125 58.4989 104.425 60.0213C103.394 60.5995 102.325 61.2161 101.312 61.775L101.106 61.5437C95.7437 55.6661 85.825 51.5036 86.2375 43.6026C86.3875 40.7312 87.3625 33.1578 105.287 23.9849C119.969 16.4693 131.725 18.5312 133.769 23.1177C136.675 29.6698 127.487 41.8489 112.225 43.6026C106.412 44.2771 103.356 41.9646 102.587 41.0974C101.781 40.1917 101.669 40.1531 101.369 40.3266C100.881 40.5963 101.181 41.4057 101.369 41.8875C101.819 43.1016 103.694 45.2599 106.881 46.3391C109.675 47.2833 116.5 47.8036 124.75 44.5276C133.994 40.8469 141.212 30.6333 139.094 22.0963C136.937 13.4052 122.912 10.5531 109.656 15.3901C101.762 18.2807 93.2125 22.7901 87.0625 28.7062C79.75 35.7208 78.5875 41.8489 79.075 44.3927C80.7812 53.4693 92.95 59.3854 97.825 63.7599C97.5812 63.8948 97.3562 64.0297 97.15 64.1453C94.7125 65.3786 85.4312 70.3698 83.1062 75.65C80.4812 81.624 83.5187 85.9214 85.5437 86.4995C91.8062 88.2917 98.2187 85.0734 101.687 79.774C105.137 74.4745 104.725 67.5948 103.131 64.4536L103.075 64.338L104.987 63.1818C106.225 62.4302 107.444 61.7365 108.512 61.1391C107.912 62.8156 107.481 64.8005 107.256 67.6911C106.994 71.0828 108.344 75.4766 110.125 77.2109C110.912 77.9625 111.85 77.9818 112.431 77.9818C114.494 77.9818 115.431 76.2281 116.462 74.1276C117.737 71.5646 118.862 68.5969 118.862 68.5969C118.862 68.5969 117.456 76.6328 121.3 76.6328C122.706 76.6328 124.112 74.7635 124.75 73.8V73.8193C124.75 73.8193 124.787 73.7615 124.862 73.6266C125.012 73.3953 125.087 73.2604 125.087 73.2604V73.2219C125.65 72.2198 126.906 69.9266 128.781 66.1302C131.2 61.2354 133.525 55.1073 133.525 55.1073C133.525 55.1073 133.75 56.6104 134.444 59.0771C134.856 60.5417 135.756 62.1411 136.45 63.7021C135.887 64.5115 135.55 64.974 135.55 64.974L135.569 64.9932C135.119 65.6099 134.612 66.2651 134.087 66.9203C132.175 69.2713 129.887 71.95 129.587 72.7208C129.231 73.6266 129.306 74.301 130 74.8406C130.506 75.226 131.406 75.3031 132.362 75.226C134.087 75.1104 135.287 74.6672 135.887 74.3974C136.825 74.0505 137.894 73.5302 138.925 72.7594C140.8 71.3333 141.944 69.3099 141.831 66.612C141.775 65.1281 141.306 63.6635 140.725 62.276C140.894 62.0255 141.062 61.775 141.231 61.5052C144.194 57.0536 146.481 52.1588 146.481 52.1588C146.481 52.1588 146.706 53.662 147.4 56.1286C147.756 57.3812 148.469 58.7495 149.106 60.0984C146.331 62.4302 144.587 65.1281 143.987 66.901C142.881 70.1771 143.744 71.6609 145.375 72.0078C146.106 72.162 147.156 71.8151 147.944 71.4682C148.919 71.1406 150.1 70.5818 151.187 69.7531C153.062 68.3271 154.862 66.3422 154.769 63.6635C154.712 62.4302 154.394 61.2161 153.962 60.0599C156.325 59.0578 159.381 58.4797 163.262 58.9614C171.606 59.9635 173.256 65.3208 172.937 67.5562C172.619 69.7917 170.875 71.025 170.294 71.4104C169.712 71.7766 169.525 71.9115 169.581 72.1812C169.656 72.5859 169.919 72.5667 170.425 72.4896C171.119 72.374 174.812 70.6588 174.962 66.5349C175.187 61.2354 170.294 55.4542 161.612 55.512V55.512ZM97.2625 77.8083C94.5062 80.9109 90.625 82.0865 88.975 81.0844C87.1937 80.0245 87.8875 75.4573 91.2812 72.162C93.3437 70.1578 96.025 68.3078 97.7875 67.1708C98.1812 66.9203 98.7812 66.5542 99.4937 66.1109C99.6062 66.0339 99.6812 65.9953 99.6812 65.9953C99.8125 65.9182 99.9625 65.8219 100.112 65.7255C101.369 70.4276 100.169 74.5516 97.2625 77.8083V77.8083ZM117.419 63.7214C116.462 66.1302 114.437 72.3161 113.219 71.9693C112.169 71.6802 111.531 66.9974 113.012 62.3724C113.762 60.0406 115.356 57.2656 116.294 56.1865C117.812 54.4521 119.462 53.8739 119.875 54.587C120.362 55.512 118.019 62.2182 117.419 63.7214ZM134.05 71.8922C133.637 72.1042 133.262 72.2583 133.094 72.1427C132.962 72.0656 133.262 71.7766 133.262 71.7766C133.262 71.7766 135.344 69.4833 136.169 68.4234C136.637 67.8068 137.2 67.0937 137.8 66.2844V66.5156C137.8 69.2906 135.212 71.1406 134.05 71.8922V71.8922ZM146.875 68.8859C146.575 68.6547 146.612 67.9417 147.625 65.7062C148.019 64.8198 148.919 63.3359 150.475 61.9292C150.662 62.5073 150.775 63.0661 150.756 63.5865C150.737 67.0552 148.337 68.3463 146.875 68.8859Z" fill="white"/>
  </g>
  <defs>
    <filter id="filter0_d" x="74" y="11" width="106" height="84" filterUnits="userSpaceOnUse" color-interpolation-filters="sRGB">
      <feFlood flood-opacity="0" result="BackgroundImageFix"/>
      <feColorMatrix in="SourceAlpha" type="matrix" values="0 0 0 0 0 0 0 0 0 0 0 0 0 0 0 0 0 0 127 0"/>
      <feOffset dy="3"/>
      <feGaussianBlur stdDeviation="2.5"/>
      <feColorMatrix type="matrix" values="0 0 0 0 0 0 0 0 0 0 0 0 0 0 0 0 0 0 0.25 0"/>
      <feBlend mode="normal" in2="BackgroundImageFix" result="effect1_dropShadow"/>
      <feBlend mode="normal" in="SourceGraphic" in2="effect1_dropShadow" result="shape"/>
    </filter>
    <clipPath id="clip0">
      <rect width="96" height="74" fill="white" transform="translate(79 13)"/>
    </clipPath>
  </defs>
</svg>
