<svg width="255" height="96" viewBox="0 0 255 96" fill="none" xmlns="http://www.w3.org/2000/svg">
  <rect width="255" height="96" rx="5" fill="#35495E"/>
  <g filter="url(#filter0_d)">
    <path d="M97.944 59.504C95.472 59.504 93.384 58.952 91.68 57.848C89.976 56.744 88.764 55.22 88.044 53.276L92.292 50.792C93.276 53.36 95.208 54.644 98.088 54.644C99.432 54.644 100.44 54.404 101.112 53.924C101.784 53.444 102.12 52.796 102.12 51.98C102.12 51.092 101.724 50.408 100.932 49.928C100.14 49.424 98.724 48.884 96.684 48.308C94.476 47.636 92.736 46.856 91.464 45.968C89.88 44.792 89.088 43.064 89.088 40.784C89.088 38.48 89.892 36.668 91.5 35.348C93.108 33.98 95.064 33.296 97.368 33.296C99.384 33.296 101.172 33.788 102.732 34.772C104.292 35.756 105.504 37.148 106.368 38.948L102.192 41.36C101.184 39.2 99.576 38.12 97.368 38.12C96.36 38.12 95.556 38.36 94.956 38.84C94.356 39.296 94.056 39.896 94.056 40.64C94.056 41.432 94.38 42.08 95.028 42.584C95.748 43.088 97.02 43.616 98.844 44.168L100.572 44.744C100.884 44.84 101.424 45.044 102.192 45.356C102.912 45.62 103.44 45.872 103.776 46.112C104.952 46.832 105.744 47.576 106.152 48.344C106.776 49.352 107.088 50.54 107.088 51.908C107.088 54.236 106.236 56.084 104.532 57.452C102.828 58.82 100.632 59.504 97.944 59.504ZM117.149 53.096L121.145 41H126.113L119.561 59C118.625 61.592 117.377 63.464 115.817 64.616C114.281 65.792 112.361 66.32 110.057 66.2V61.88C111.281 61.904 112.265 61.64 113.009 61.088C113.753 60.536 114.341 59.648 114.773 58.424L107.393 41H112.469L117.149 53.096ZM148.231 40.496C150.295 40.496 151.939 41.168 153.163 42.512C154.411 43.856 155.035 45.656 155.035 47.912V59H150.391V48.236C150.391 47.156 150.127 46.316 149.599 45.716C149.071 45.116 148.327 44.816 147.367 44.816C146.311 44.816 145.483 45.164 144.883 45.86C144.307 46.556 144.019 47.564 144.019 48.884V59H139.375V48.236C139.375 47.156 139.111 46.316 138.583 45.716C138.055 45.116 137.311 44.816 136.351 44.816C135.319 44.816 134.491 45.176 133.867 45.896C133.267 46.592 132.967 47.588 132.967 48.884V59H128.323V41H132.967V42.908C134.047 41.3 135.715 40.496 137.971 40.496C140.203 40.496 141.835 41.36 142.867 43.088C144.043 41.36 145.831 40.496 148.231 40.496ZM168.663 33.296V37.76C166.119 37.592 164.847 38.612 164.847 40.82V41H168.663V45.464H164.847V59H160.203V45.464H157.611V41H160.203V40.82C160.203 38.252 160.911 36.32 162.327 35.024C163.767 33.704 165.879 33.128 168.663 33.296ZM185.46 56.768C183.636 58.592 181.38 59.504 178.692 59.504C176.004 59.504 173.748 58.592 171.924 56.768C170.1 54.944 169.188 52.688 169.188 50C169.188 47.336 170.1 45.092 171.924 43.268C173.772 41.42 176.028 40.496 178.692 40.496C181.356 40.496 183.612 41.42 185.46 43.268C187.308 45.116 188.232 47.36 188.232 50C188.232 52.664 187.308 54.92 185.46 56.768ZM175.2 53.564C176.136 54.5 177.3 54.968 178.692 54.968C180.084 54.968 181.248 54.5 182.184 53.564C183.12 52.628 183.588 51.44 183.588 50C183.588 48.56 183.12 47.372 182.184 46.436C181.248 45.5 180.084 45.032 178.692 45.032C177.3 45.032 176.136 45.5 175.2 46.436C174.288 47.396 173.832 48.584 173.832 50C173.832 51.416 174.288 52.604 175.2 53.564ZM201.507 40.496C203.499 40.496 205.119 41.156 206.367 42.476C207.663 43.82 208.311 45.644 208.311 47.948V59H203.667V48.524C203.667 47.348 203.343 46.436 202.695 45.788C202.071 45.14 201.207 44.816 200.103 44.816C198.879 44.816 197.907 45.2 197.187 45.968C196.491 46.712 196.143 47.816 196.143 49.28V59H191.499V41H196.143V43.016C197.247 41.336 199.035 40.496 201.507 40.496ZM219.63 53.096L223.626 41H228.594L222.042 59C221.106 61.592 219.858 63.464 218.298 64.616C216.762 65.792 214.842 66.32 212.538 66.2V61.88C213.762 61.904 214.746 61.64 215.49 61.088C216.234 60.536 216.822 59.648 217.254 58.424L209.874 41H214.95L219.63 53.096Z" fill="white"/>
  </g>
  <g filter="url(#filter1_d)">
    <path d="M51 73C64.8071 73 76 61.8071 76 48C76 34.1929 64.8071 23 51 23C37.1929 23 26 34.1929 26 48C26 61.8071 37.1929 73 51 73Z" fill="#181720"/>
    <path d="M61.88 32.2377C59.3439 32.3262 57.13 33.7239 55.4823 35.6577C53.6577 37.7777 52.4439 40.2924 51.5692 42.8593C50.0046 41.577 48.7977 39.917 46.2877 39.1931C44.3477 38.6362 42.31 38.8662 40.4362 40.2624C39.5485 40.9254 38.9369 41.9277 38.6462 42.8701C37.8931 45.3185 39.4377 47.4977 40.1392 48.2801L41.6731 49.9239C41.9892 50.2462 42.7508 51.087 42.3785 52.2924C41.9762 53.6031 40.3962 54.4516 38.7754 53.9516C38.0515 53.7308 37.0115 53.1916 37.2446 52.4324C37.3408 52.1216 37.5631 51.8893 37.6823 51.6208C37.7915 51.3901 37.8439 51.217 37.8769 51.1154C38.1731 50.1485 37.7685 48.8908 36.7331 48.5716C35.7669 48.2754 34.7785 48.5101 34.3954 49.7539C33.9608 51.167 34.6369 53.7316 38.2592 54.8485C42.5031 56.1524 46.0931 53.8416 46.6023 50.8277C46.9231 48.9401 46.0708 47.5377 44.5092 45.7339L43.2369 44.327C42.4662 43.557 42.2015 42.2447 42.9992 41.2362C43.6723 40.3854 44.6308 40.0224 46.2008 40.4493C48.4923 41.0716 49.5139 42.6616 51.2185 43.9439C50.5146 46.2524 50.0546 48.5693 49.6385 50.647L49.3846 52.1962C48.1662 58.587 47.2362 62.0962 44.8192 64.1108C44.3323 64.457 43.6362 64.9754 42.5869 65.0116C42.0369 65.0285 41.8592 64.6501 41.8515 64.4854C41.8385 64.0993 42.1639 63.9224 42.38 63.7485C42.7031 63.5724 43.1915 63.2801 43.1585 62.3439C43.1231 61.2377 42.2069 60.2785 40.8823 60.3224C39.89 60.3562 38.3777 61.2901 38.4346 62.9993C38.4939 64.7647 40.1392 66.0877 42.62 66.0039C43.9462 65.9585 46.9077 65.4185 49.8262 61.9493C53.2231 57.9724 54.1731 53.4131 54.8877 50.0762L55.6854 45.6708C56.1285 45.7239 56.6023 45.7593 57.1177 45.7716C61.3485 45.8608 63.4646 43.6693 63.4962 42.0754C63.5169 41.1108 62.8631 40.1616 61.9477 40.1831C61.2923 40.2016 60.4692 40.6377 60.2715 41.5439C60.0785 42.4331 61.6177 43.2354 60.4146 44.0147C59.56 44.5677 58.0277 44.9577 55.87 44.6408L56.2623 42.4724C57.0631 38.3601 58.0508 33.3016 61.7977 33.1785C62.0708 33.1647 63.07 33.1908 63.0931 33.8516C63.1 34.0724 63.0454 34.1285 62.7869 34.6339C62.5239 35.0277 62.4246 35.3631 62.4369 35.7485C62.4731 36.7985 63.2715 37.4885 64.4262 37.447C65.9723 37.397 66.4169 35.8916 66.3915 35.1185C66.3292 33.3024 64.4146 32.1547 61.88 32.2377Z" fill="white"/>
  </g>
  <defs>
    <filter id="filter0_d" x="83.0439" y="31.2676" width="150.55" height="42.9491" filterUnits="userSpaceOnUse" color-interpolation-filters="sRGB">
      <feFlood flood-opacity="0" result="BackgroundImageFix"/>
      <feColorMatrix in="SourceAlpha" type="matrix" values="0 0 0 0 0 0 0 0 0 0 0 0 0 0 0 0 0 0 127 0"/>
      <feOffset dy="3"/>
      <feGaussianBlur stdDeviation="2.5"/>
      <feColorMatrix type="matrix" values="0 0 0 0 0 0 0 0 0 0 0 0 0 0 0 0 0 0 0.25 0"/>
      <feBlend mode="normal" in2="BackgroundImageFix" result="effect1_dropShadow"/>
      <feBlend mode="normal" in="SourceGraphic" in2="effect1_dropShadow" result="shape"/>
    </filter>
    <filter id="filter1_d" x="21" y="21" width="60" height="60" filterUnits="userSpaceOnUse" color-interpolation-filters="sRGB">
      <feFlood flood-opacity="0" result="BackgroundImageFix"/>
      <feColorMatrix in="SourceAlpha" type="matrix" values="0 0 0 0 0 0 0 0 0 0 0 0 0 0 0 0 0 0 127 0"/>
      <feOffset dy="3"/>
      <feGaussianBlur stdDeviation="2.5"/>
      <feColorMatrix type="matrix" values="0 0 0 0 0 0 0 0 0 0 0 0 0 0 0 0 0 0 0.25 0"/>
      <feBlend mode="normal" in2="BackgroundImageFix" result="effect1_dropShadow"/>
      <feBlend mode="normal" in="SourceGraphic" in2="effect1_dropShadow" result="shape"/>
    </filter>
  </defs>
</svg>
