<svg width="255" height="100" viewBox="0 0 255 100" fill="none" xmlns="http://www.w3.org/2000/svg">
  <rect width="255" height="100" rx="5" fill="#0093A4"/>
  <g filter="url(#filter0_d)">
    <path d="M40.1291 36C33.9614 36 30.1065 39.0839 28.5646 45.2517C30.8775 42.1678 33.5759 41.0113 36.6598 41.7823C38.4193 42.2222 39.6769 43.4986 41.069 44.9117C43.3366 47.2134 45.9612 49.8775 51.6937 49.8775C57.8615 49.8775 61.7163 46.7936 63.2583 40.6258C60.9454 43.7097 58.247 44.8662 55.1631 44.0952C53.4036 43.6553 52.1459 42.3788 50.7539 40.9658C48.4862 38.664 45.8617 36 40.1291 36ZM28.5646 49.8775C22.3968 49.8775 18.5419 52.9614 17 59.1291C19.3129 56.0453 22.0113 54.8888 25.0952 55.6598C26.8547 56.0997 28.1124 57.3761 29.5044 58.7891C31.7721 61.0909 34.3966 63.755 40.1291 63.755C46.2969 63.755 50.1518 60.6711 51.6937 54.5033C49.3808 57.5872 46.6824 58.7437 43.5985 57.9727C41.839 57.5328 40.5814 56.2563 39.1893 54.8433C36.9216 52.5415 34.2971 49.8775 28.5646 49.8775Z" fill="url(#paint0_linear)"/>
  </g>
  <g filter="url(#filter1_d)">
    <path d="M84.384 47.6949H80.3476V55.5074C80.3476 57.5908 81.7148 57.5582 84.384 57.428V60.5856C78.9804 61.2366 76.832 59.7392 76.832 55.5074V47.6949H73.8372V44.3095H76.832V39.9372L80.3476 38.8956V44.3095H84.384V47.6949ZM99.7709 44.3095H103.287V60.5856H99.7709V58.2418C98.5339 59.9671 96.6134 61.0087 94.0743 61.0087C89.6472 61.0087 85.9688 57.2652 85.9688 52.4475C85.9688 47.5973 89.6472 43.8863 94.0743 43.8863C96.6134 43.8863 98.5339 44.928 99.7709 46.6207V44.3095ZM94.6277 57.6559C97.5574 57.6559 99.7709 55.4749 99.7709 52.4475C99.7709 49.4202 97.5574 47.2392 94.6277 47.2392C91.698 47.2392 89.4845 49.4202 89.4845 52.4475C89.4845 55.4749 91.698 57.6559 94.6277 57.6559ZM109.146 41.8681C107.909 41.8681 106.9 40.8264 106.9 39.622C106.9 38.385 107.909 37.3759 109.146 37.3759C110.383 37.3759 111.392 38.385 111.392 39.622C111.392 40.8264 110.383 41.8681 109.146 41.8681ZM107.388 60.5856V44.3095H110.904V60.5856H107.388ZM114.973 60.5856V36.8225H118.488V60.5856H114.973ZM141.307 44.3095H145.018L139.908 60.5856H136.457L133.072 49.6155L129.654 60.5856H126.203L121.093 44.3095H124.804L127.961 55.54L131.379 44.3095H134.732L138.117 55.54L141.307 44.3095ZM149.38 41.8681C148.143 41.8681 147.134 40.8264 147.134 39.622C147.134 38.385 148.143 37.3759 149.38 37.3759C150.617 37.3759 151.626 38.385 151.626 39.622C151.626 40.8264 150.617 41.8681 149.38 41.8681ZM147.623 60.5856V44.3095H151.138V60.5856H147.623ZM163.768 43.8863C167.414 43.8863 170.018 46.3603 170.018 50.5921V60.5856H166.503V50.9501C166.503 48.4762 165.07 47.1741 162.857 47.1741C160.546 47.1741 158.723 48.5413 158.723 51.8616V60.5856H155.207V44.3095H158.723V46.3928C159.797 44.7001 161.555 43.8863 163.768 43.8863ZM186.685 37.7991H190.201V60.5856H186.685V58.2418C185.448 59.9671 183.528 61.0087 180.988 61.0087C176.561 61.0087 172.883 57.2652 172.883 52.4475C172.883 47.5973 176.561 43.8863 180.988 43.8863C183.528 43.8863 185.448 44.928 186.685 46.6207V37.7991ZM181.542 57.6559C184.472 57.6559 186.685 55.4749 186.685 52.4475C186.685 49.4202 184.472 47.2392 181.542 47.2392C178.612 47.2392 176.399 49.4202 176.399 52.4475C176.399 55.4749 178.612 57.6559 181.542 57.6559ZM201.985 61.0087C197.069 61.0087 193.391 57.2652 193.391 52.4475C193.391 47.5973 197.069 43.8863 201.985 43.8863C205.175 43.8863 207.942 45.5465 209.244 48.0855L206.216 49.8434C205.5 48.3134 203.905 47.3368 201.952 47.3368C199.087 47.3368 196.906 49.5178 196.906 52.4475C196.906 55.3772 199.087 57.5582 201.952 57.5582C203.905 57.5582 205.5 56.5491 206.281 55.0517L209.309 56.777C207.942 59.3486 205.175 61.0087 201.985 61.0087ZM215.103 48.8017C215.103 51.7639 223.86 49.9736 223.86 55.9957C223.86 59.2509 221.028 61.0087 217.512 61.0087C214.257 61.0087 211.913 59.5439 210.871 57.2001L213.899 55.4423C214.42 56.9072 215.722 57.7861 217.512 57.7861C219.074 57.7861 220.279 57.2652 220.279 55.9632C220.279 53.066 211.522 54.6936 211.522 48.8668C211.522 45.8069 214.159 43.8863 217.479 43.8863C220.149 43.8863 222.362 45.1233 223.502 47.2717L220.539 48.9319C219.953 47.6624 218.814 47.0764 217.479 47.0764C216.21 47.0764 215.103 47.6298 215.103 48.8017ZM230.11 48.8017C230.11 51.7639 238.866 49.9736 238.866 55.9957C238.866 59.2509 236.034 61.0087 232.519 61.0087C229.263 61.0087 226.92 59.5439 225.878 57.2001L228.905 55.4423C229.426 56.9072 230.728 57.7861 232.519 57.7861C234.081 57.7861 235.285 57.2652 235.285 55.9632C235.285 53.066 226.529 54.6936 226.529 48.8668C226.529 45.8069 229.166 43.8863 232.486 43.8863C235.155 43.8863 237.369 45.1233 238.508 47.2717L235.546 48.9319C234.96 47.6624 233.821 47.0764 232.486 47.0764C231.216 47.0764 230.11 47.6298 230.11 48.8017Z" fill="white"/>
  </g>
  <defs>
    <filter id="filter0_d" x="12" y="34" width="56.2583" height="37.755" filterUnits="userSpaceOnUse" color-interpolation-filters="sRGB">
      <feFlood flood-opacity="0" result="BackgroundImageFix"/>
      <feColorMatrix in="SourceAlpha" type="matrix" values="0 0 0 0 0 0 0 0 0 0 0 0 0 0 0 0 0 0 127 0"/>
      <feOffset dy="3"/>
      <feGaussianBlur stdDeviation="2.5"/>
      <feColorMatrix type="matrix" values="0 0 0 0 0 0 0 0 0 0 0 0 0 0 0 0 0 0 0.25 0"/>
      <feBlend mode="normal" in2="BackgroundImageFix" result="effect1_dropShadow"/>
      <feBlend mode="normal" in="SourceGraphic" in2="effect1_dropShadow" result="shape"/>
    </filter>
    <filter id="filter1_d" x="68.8372" y="34.8225" width="175.029" height="34.1862" filterUnits="userSpaceOnUse" color-interpolation-filters="sRGB">
      <feFlood flood-opacity="0" result="BackgroundImageFix"/>
      <feColorMatrix in="SourceAlpha" type="matrix" values="0 0 0 0 0 0 0 0 0 0 0 0 0 0 0 0 0 0 127 0"/>
      <feOffset dy="3"/>
      <feGaussianBlur stdDeviation="2.5"/>
      <feColorMatrix type="matrix" values="0 0 0 0 0 0 0 0 0 0 0 0 0 0 0 0 0 0 0.25 0"/>
      <feBlend mode="normal" in2="BackgroundImageFix" result="effect1_dropShadow"/>
      <feBlend mode="normal" in="SourceGraphic" in2="effect1_dropShadow" result="shape"/>
    </filter>
    <linearGradient id="paint0_linear" x1="15.715" y1="44.8816" x2="55.6667" y2="67.9168" gradientUnits="userSpaceOnUse">
      <stop stop-color="#2298BD"/>
      <stop offset="1" stop-color="#0ED7B5"/>
    </linearGradient>
  </defs>
</svg>
