<svg width="255" height="100" viewBox="0 0 255 100" fill="none" xmlns="http://www.w3.org/2000/svg">
  <rect width="255" height="100" rx="5" fill="#21759B"/>
  <g clip-path="url(#clip0)">
    <path d="M28.5537 53.9999C28.5537 62.4891 33.4872 69.8254 40.6411 73.302L30.4106 45.2715C29.2205 47.9388 28.5537 50.8906 28.5537 53.9999V53.9999Z" fill="white"/>
    <path d="M64.4793 52.9177C64.4793 50.2671 63.5272 48.4315 62.7106 47.0028C61.6234 45.2361 60.6044 43.74 60.6044 41.9734C60.6044 40.0019 62.0997 38.1667 64.2059 38.1667C64.3009 38.1667 64.3911 38.1785 64.4838 38.1838C60.6681 34.6881 55.5844 32.5537 50.0008 32.5537C42.5082 32.5537 35.9162 36.398 32.0813 42.2207C32.5845 42.2358 33.0587 42.2464 33.4615 42.2464C35.7048 42.2464 39.1773 41.9742 39.1773 41.9742C40.3334 41.9061 40.4697 43.6042 39.3148 43.7409C39.3148 43.7409 38.153 43.8776 36.8601 43.9453L44.6703 67.1762L49.3638 53.0997L46.0223 43.9445C44.8674 43.8768 43.7733 43.74 43.7733 43.74C42.6175 43.6723 42.753 41.9052 43.9088 41.9734C43.9088 41.9734 47.4506 42.2456 49.558 42.2456C51.8009 42.2456 55.2738 41.9734 55.2738 41.9734C56.4308 41.9052 56.5667 43.6033 55.4114 43.74C55.4114 43.74 54.2471 43.8768 52.9567 43.9445L60.7072 66.9995L62.8465 59.8509C63.7737 56.8844 64.4793 54.7538 64.4793 52.9177V52.9177Z" fill="white"/>
    <path d="M50.377 55.876L43.9421 74.5746C45.8635 75.1394 47.8954 75.4483 50.0007 75.4483C52.4983 75.4483 54.8934 75.0165 57.1228 74.2326C57.0653 74.1407 57.0131 74.0432 56.9702 73.9371L50.377 55.876Z" fill="white"/>
    <path d="M68.8199 43.7102C68.9122 44.3934 68.9644 45.1267 68.9644 45.9156C68.9644 48.0919 68.5579 50.5385 67.3336 53.5976L60.7825 72.5386C67.1586 68.8204 71.4473 61.9125 71.4473 54.0004C71.4477 50.2716 70.4952 46.7652 68.8199 43.7102V43.7102Z" fill="white"/>
    <path d="M50.0008 29C36.2157 29 25 40.2149 25 54C25 67.7867 36.2157 79.0012 50.0008 79.0012C63.7855 79.0012 75.0029 67.7867 75.0029 54C75.0024 40.2149 63.7855 29 50.0008 29ZM50.0008 77.8553C36.8479 77.8553 26.1463 67.1538 26.1463 54C26.1463 40.847 36.8475 30.1463 50.0008 30.1463C63.1534 30.1463 73.8541 40.847 73.8541 54C73.8541 67.1538 63.1534 77.8553 50.0008 77.8553Z" fill="white"/>
  </g>
  <g filter="url(#filter0_d)">
    <path d="M95.04 62H90.33L84.45 41H88.8L92.82 56.57L97.2 41H100.74L105.15 56.57L109.17 41H113.52L107.64 62H102.93L98.97 48.14L95.04 62ZM126.734 60.14C125.214 61.66 123.334 62.42 121.094 62.42C118.854 62.42 116.974 61.66 115.454 60.14C113.934 58.62 113.174 56.74 113.174 54.5C113.174 52.28 113.934 50.41 115.454 48.89C116.994 47.35 118.874 46.58 121.094 46.58C123.314 46.58 125.194 47.35 126.734 48.89C128.274 50.43 129.044 52.3 129.044 54.5C129.044 56.72 128.274 58.6 126.734 60.14ZM118.184 57.47C118.964 58.25 119.934 58.64 121.094 58.64C122.254 58.64 123.224 58.25 124.004 57.47C124.784 56.69 125.174 55.7 125.174 54.5C125.174 53.3 124.784 52.31 124.004 51.53C123.224 50.75 122.254 50.36 121.094 50.36C119.934 50.36 118.964 50.75 118.184 51.53C117.424 52.33 117.044 53.32 117.044 54.5C117.044 55.68 117.424 56.67 118.184 57.47ZM135.636 47V49.58C135.976 48.64 136.556 47.93 137.376 47.45C138.196 46.95 139.136 46.7 140.196 46.7V51.02C139.016 50.86 137.956 51.1 137.016 51.74C136.096 52.36 135.636 53.39 135.636 54.83V62H131.766V47H135.636ZM153.273 48.77V41H157.143V62H153.273V60.23C152.133 61.69 150.513 62.42 148.413 62.42C146.393 62.42 144.663 61.66 143.223 60.14C141.803 58.6 141.093 56.72 141.093 54.5C141.093 52.3 141.803 50.43 143.223 48.89C144.663 47.35 146.393 46.58 148.413 46.58C150.513 46.58 152.133 47.31 153.273 48.77ZM146.133 57.56C146.953 58.34 147.953 58.73 149.133 58.73C150.333 58.73 151.323 58.34 152.103 57.56C152.883 56.76 153.273 55.74 153.273 54.5C153.273 53.26 152.883 52.25 152.103 51.47C151.323 50.67 150.333 50.27 149.133 50.27C147.933 50.27 146.933 50.67 146.133 51.47C145.353 52.25 144.963 53.26 144.963 54.5C144.963 55.74 145.353 56.76 146.133 57.56ZM160.862 41H168.692C170.692 41 172.392 41.68 173.792 43.04C175.172 44.4 175.862 46.07 175.862 48.05C175.862 50.03 175.172 51.7 173.792 53.06C172.392 54.42 170.692 55.1 168.692 55.1H165.002V62H160.862V41ZM165.002 51.23H168.692C169.572 51.23 170.302 50.93 170.882 50.33C171.462 49.71 171.752 48.95 171.752 48.05C171.752 47.13 171.462 46.37 170.882 45.77C170.302 45.17 169.572 44.87 168.692 44.87H165.002V51.23ZM181.925 47V49.58C182.265 48.64 182.845 47.93 183.665 47.45C184.485 46.95 185.425 46.7 186.485 46.7V51.02C185.305 50.86 184.245 51.1 183.305 51.74C182.385 52.36 181.925 53.39 181.925 54.83V62H178.055V47H181.925ZM202.772 56.09H191.462C191.962 57.97 193.372 58.91 195.692 58.91C197.172 58.91 198.292 58.41 199.052 57.41L202.172 59.21C200.692 61.35 198.512 62.42 195.632 62.42C193.152 62.42 191.162 61.67 189.662 60.17C188.162 58.67 187.412 56.78 187.412 54.5C187.412 52.26 188.152 50.38 189.632 48.86C191.092 47.34 192.992 46.58 195.332 46.58C197.552 46.58 199.362 47.34 200.762 48.86C202.202 50.38 202.922 52.26 202.922 54.5C202.922 54.92 202.872 55.45 202.772 56.09ZM191.402 53.09H199.052C198.832 52.11 198.382 51.36 197.702 50.84C197.042 50.32 196.252 50.06 195.332 50.06C194.292 50.06 193.432 50.33 192.752 50.87C192.072 51.39 191.622 52.13 191.402 53.09ZM208.608 51.26C208.608 51.9 209.518 52.45 211.338 52.91C211.978 53.05 212.558 53.22 213.078 53.42C213.598 53.6 214.118 53.87 214.638 54.23C215.178 54.57 215.598 55.03 215.898 55.61C216.198 56.19 216.348 56.86 216.348 57.62C216.348 59.16 215.768 60.35 214.608 61.19C213.448 62.01 212.018 62.42 210.318 62.42C207.238 62.42 205.138 61.23 204.018 58.85L207.378 56.96C207.838 58.26 208.818 58.91 210.318 58.91C211.698 58.91 212.388 58.48 212.388 57.62C212.388 56.98 211.478 56.43 209.658 55.97C208.978 55.79 208.398 55.61 207.918 55.43C207.438 55.25 206.918 54.99 206.358 54.65C205.798 54.29 205.368 53.84 205.068 53.3C204.788 52.74 204.648 52.09 204.648 51.35C204.648 49.87 205.188 48.71 206.268 47.87C207.368 47.01 208.728 46.58 210.348 46.58C211.568 46.58 212.678 46.86 213.678 47.42C214.678 47.96 215.468 48.74 216.048 49.76L212.748 51.56C212.268 50.54 211.468 50.03 210.348 50.03C209.848 50.03 209.428 50.15 209.088 50.39C208.768 50.61 208.608 50.9 208.608 51.26ZM221.615 51.26C221.615 51.9 222.525 52.45 224.345 52.91C224.985 53.05 225.565 53.22 226.085 53.42C226.605 53.6 227.125 53.87 227.645 54.23C228.185 54.57 228.605 55.03 228.905 55.61C229.205 56.19 229.355 56.86 229.355 57.62C229.355 59.16 228.775 60.35 227.615 61.19C226.455 62.01 225.025 62.42 223.325 62.42C220.245 62.42 218.145 61.23 217.025 58.85L220.385 56.96C220.845 58.26 221.825 58.91 223.325 58.91C224.705 58.91 225.395 58.48 225.395 57.62C225.395 56.98 224.485 56.43 222.665 55.97C221.985 55.79 221.405 55.61 220.925 55.43C220.445 55.25 219.925 54.99 219.365 54.65C218.805 54.29 218.375 53.84 218.075 53.3C217.795 52.74 217.655 52.09 217.655 51.35C217.655 49.87 218.195 48.71 219.275 47.87C220.375 47.01 221.735 46.58 223.355 46.58C224.575 46.58 225.685 46.86 226.685 47.42C227.685 47.96 228.475 48.74 229.055 49.76L225.755 51.56C225.275 50.54 224.475 50.03 223.355 50.03C222.855 50.03 222.435 50.15 222.095 50.39C221.775 50.61 221.615 50.9 221.615 51.26Z" fill="white"/>
  </g>
  <defs>
    <filter id="filter0_d" x="79.45" y="39" width="154.905" height="31.42" filterUnits="userSpaceOnUse" color-interpolation-filters="sRGB">
      <feFlood flood-opacity="0" result="BackgroundImageFix"/>
      <feColorMatrix in="SourceAlpha" type="matrix" values="0 0 0 0 0 0 0 0 0 0 0 0 0 0 0 0 0 0 127 0"/>
      <feOffset dy="3"/>
      <feGaussianBlur stdDeviation="2.5"/>
      <feColorMatrix type="matrix" values="0 0 0 0 0 0 0 0 0 0 0 0 0 0 0 0 0 0 0.25 0"/>
      <feBlend mode="normal" in2="BackgroundImageFix" result="effect1_dropShadow"/>
      <feBlend mode="normal" in="SourceGraphic" in2="effect1_dropShadow" result="shape"/>
    </filter>
    <clipPath id="clip0">
      <rect width="50" height="50.0012" fill="white" transform="translate(25 29)"/>
    </clipPath>
  </defs>
</svg>
