<svg width="24" height="24" viewBox="0 0 24 24" fill="none" xmlns="http://www.w3.org/2000/svg">
<path d="M0.50114 4.46044C3.79505 7.25002 9.57483 12.1577 11.2736 13.688C11.5016 13.8945 11.7462 13.9995 12.0001 13.9995C12.2535 13.9995 12.4977 13.8955 12.7253 13.6899C14.4255 12.1582 20.2052 7.25002 23.4992 4.46044C23.7043 4.28709 23.7355 3.98241 23.5695 3.77048C23.1857 3.28078 22.6134 3 22.0001 3H2.00016C1.38689 3 0.814593 3.28078 0.430828 3.77053C0.264796 3.98241 0.296062 4.28709 0.50114 4.46044Z" fill="#1D1956"/>
<path d="M23.71 5.97215C23.5327 5.88965 23.3242 5.91843 23.1768 6.04443C19.5239 9.14109 14.8618 13.1104 13.395 14.4321C12.5717 15.1753 11.4292 15.1753 10.604 14.4311C9.0405 13.0224 3.80512 8.57175 0.823219 6.04439C0.674766 5.91839 0.465797 5.89059 0.290016 5.9721C0.113297 6.05418 0 6.23095 0 6.42576V19C0 20.103 0.896953 21 2.00002 21H22C23.103 21 24 20.103 24 19V6.42576C24 6.23095 23.8867 6.05371 23.71 5.97215Z" fill="#1D1956"/>
</svg>
