<svg width="24" height="24" viewBox="0 0 24 24" fill="none" xmlns="http://www.w3.org/2000/svg">
<path d="M20.5417 3.69227C19.3456 2.52217 17.4215 2.52217 16.2774 3.69227L3.48429 16.3293C2.3402 17.4994 2.3402 19.3976 3.48429 20.5417C4.62839 21.7118 6.52655 21.7118 7.69664 20.5417L20.4377 7.90462C21.6598 6.70852 21.6598 4.78436 20.5157 3.64027" fill="#1D1956"/>
<path d="M14.9771 3.19827C14.9771 1.1701 13.677 0 11.9608 0C10.4007 0 9.02258 1.56013 8.99658 3.19827L11.9608 6.24052L14.9771 3.19827Z" fill="#1D1956"/>
<path d="M7.93059 3.5883C7.41055 3.01625 6.63049 2.67822 5.85042 2.67822C5.01835 2.67822 4.29029 2.93824 3.69224 3.51029C2.49614 4.65439 2.47014 6.55254 3.58823 7.74864L4.03027 8.21668H10.3488L11.3889 7.2286L7.93059 3.5883Z" fill="#1D1956"/>
<path d="M3.01625 9.10083C2.23619 9.10083 1.45612 9.43886 0.884074 9.9849C0.312026 10.557 0 11.285 0 12.0651C0 12.8971 0.156013 15.1073 3.43229 15.1073L9.41278 9.17884H3.04225L3.01625 9.10083Z" fill="#1D1956"/>
<path d="M8.99658 20.8018C8.99658 22.8299 10.2967 24 11.9868 24C13.651 24 15.0031 22.4399 15.0291 20.8018L11.9608 17.7595L8.99658 20.8018Z" fill="#1D1956"/>
<path d="M20.3859 16.5634L19.9438 16.1213L13.6253 16.0693L12.5852 17.1094L16.1215 20.6717C17.2656 21.8678 19.1638 21.8938 20.3599 20.7757C21.556 19.6316 21.582 17.7335 20.4639 16.5374" fill="#1D1956"/>
<path d="M20.5938 9.17871L14.5613 15.1592H20.9578C21.7899 15.1592 22.5179 14.8992 23.09 14.3271C23.662 13.8071 23.9741 13.027 23.9741 12.247C23.9741 10.5828 22.674 9.17871 20.5938 9.20471" fill="#1D1956"/>
</svg>
