<svg width="24" height="20" viewBox="0 0 24 20" fill="none" xmlns="http://www.w3.org/2000/svg">
<path d="M7.54752 19.5012C16.6042 19.5012 21.5578 11.9979 21.5578 5.49101C21.5578 5.27789 21.5578 5.06573 21.5434 4.85453C22.507 4.15748 23.3389 3.29441 24 2.30573C23.1013 2.70394 22.148 2.96508 21.1718 3.08045C22.1998 2.46507 22.9691 1.49719 23.3366 0.356928C22.3701 0.930485 21.3126 1.3347 20.2099 1.55213C19.4675 0.762705 18.4856 0.23997 17.4162 0.0648128C16.3468 -0.110344 15.2494 0.071843 14.294 0.583181C13.3385 1.09452 12.5782 1.9065 12.1307 2.89348C11.6833 3.88045 11.5735 4.98739 11.8186 6.04301C9.86088 5.94486 7.94572 5.43613 6.19741 4.54981C4.4491 3.6635 2.90672 2.41943 1.6704 0.898368C1.04073 1.98236 0.847872 3.2656 1.1311 4.48679C1.41433 5.70798 2.15234 6.77532 3.19488 7.47149C2.41127 7.44826 1.64475 7.23688 0.96 6.85517C0.96 6.87533 0.96 6.89645 0.96 6.91757C0.960311 8.05442 1.35385 9.15616 2.07387 10.0359C2.79389 10.9157 3.79606 11.5193 4.9104 11.7444C4.18548 11.9421 3.42488 11.971 2.68704 11.8289C3.00169 12.8073 3.61427 13.6629 4.43911 14.276C5.26395 14.8892 6.25979 15.2291 7.28736 15.2484C5.54375 16.6188 3.38982 17.3627 1.17216 17.3604C0.780387 17.3597 0.388996 17.336 0 17.2894C2.25181 18.7345 4.87192 19.501 7.54752 19.4974" fill="#1D1956"/>
</svg>
